SplineFontDB: 3.0
FontName: Bukvar_inoka_Save
FullName: Bukvar inoka Save
FamilyName: Bukvar inoka Save
Weight: Regular
Copyright: Created by Filip Parag\nThis work is licensed under a Creative Commons Attribution-ShareAlike 4.0 International License.
UComments: "2016-3-21: Created with FontForge (http://fontforge.org)"
Version: 001.1
ItalicAngle: 0
UnderlinePosition: -100
UnderlineWidth: 50
Ascent: 800
Descent: 200
InvalidEm: 0
LayerCount: 2
Layer: 0 0 "Back" 1
Layer: 1 0 "Fore" 0
XUID: [1021 885 737160276 18432]
StyleMap: 0x0000
FSType: 0
OS2Version: 0
OS2_WeightWidthSlopeOnly: 0
OS2_UseTypoMetrics: 1
CreationTime: 1458576964
ModificationTime: 1461230820
OS2TypoAscent: 0
OS2TypoAOffset: 1
OS2TypoDescent: 0
OS2TypoDOffset: 1
OS2TypoLinegap: 90
OS2WinAscent: 0
OS2WinAOffset: 1
OS2WinDescent: 0
OS2WinDOffset: 1
HheadAscent: 0
HheadAOffset: 1
HheadDescent: 0
HheadDOffset: 1
OS2Vendor: 'PfEd'
MarkAttachClasses: 1
DEI: 91125
Encoding: iso8859-5
UnicodeInterp: none
NameList: AGL For New Fonts
DisplaySize: -48
AntiAlias: 1
FitToEm: 0
WinInfo: 27 27 9
BeginPrivate: 0
EndPrivate
BeginChars: 256 33

StartChar: uni0410
Encoding: 176 1040 0
Width: 814
VWidth: 0
Flags: HW
LayerCount: 2
Fore
SplineSet
802.099609375 0 m 1
 713.299804688 1.5 624.599609375 3 535.799804688 4.5 c 1
 539.700195312 21.099609375 543.5 37.599609375 547.400390625 54.2001953125 c 1
 533.400390625 112.5 520.400390625 155.799804688 512.599609375 171.900390625 c 0
 509.900390625 177.299804688 506.099609375 183.400390625 499.299804688 186.799804688 c 0
 490.900390625 191 482 189.299804688 477.299804688 188 c 0
 323.099609375 127.299804688 169 66.599609375 14.7998046875 5.900390625 c 0
 9.7998046875 3.900390625 4.900390625 2 -0.099609375 0 c 1
 13.2998046875 78.7998046875 35.900390625 171.599609375 74.900390625 271.799804688 c 0
 145.299804688 452.700195312 241 586.799804688 316.900390625 675.700195312 c 1
 312.200195312 687.200195312 305.799804688 700.200195312 297 713.799804688 c 0
 278.599609375 742.299804688 257 761.5 240.700195312 773.5 c 1
 329.099609375 782.299804688 417.5 791.200195312 505.900390625 800 c 1
 515.900390625 748.099609375 525.799804688 696.099609375 535.700195312 644.200195312 c 1
 624.5 429.5 713.299804688 214.700195312 802.099609375 0 c 1
94.7001953125 129.400390625 m 0
 102.099609375 125.400390625 109.200195312 128.299804688 110.299804688 128.799804688 c 0
 109.5 131 106.099609375 139.400390625 98.099609375 142.099609375 c 0
 96.2998046875 142.599609375 92.7998046875 143.700195312 89.900390625 141.799804688 c 0
 88 140.5 87 138.700195312 86.7001953125 137.599609375 c 0
 87.5 136 89.7001953125 131.799804688 94.7001953125 129.400390625 c 0
419.799804688 214.5 m 0
 437.5 222.5 455.299804688 230.700195312 473 238.700195312 c 1
 456 303.900390625 433.200195312 375.5 402.200195312 450.799804688 c 0
 386.200195312 490.099609375 369.5 526.400390625 352.299804688 560.599609375 c 1
 364.799804688 547.900390625 385.200195312 547.400390625 397.900390625 559.299804688 c 0
 410.099609375 570.400390625 411.700195312 590 401.099609375 603.299804688 c 0
 381.700195312 629.299804688 353.599609375 633.299804688 342.5 623.200195312 c 0
 334.5 616 334 599.299804688 340.099609375 583.400390625 c 1
 333.400390625 587.099609375 324.400390625 590.799804688 313.799804688 590 c 0
 250.700195312 585.700195312 217 432.200195312 203.200195312 369.099609375 c 0
 185.900390625 290 162.299804688 181.900390625 209.799804688 150.299804688 c 0
 224.099609375 140.799804688 240.799804688 140.799804688 253 142.099609375 c 0
 307.900390625 164.900390625 363.599609375 189 419.799804688 214.5 c 0
543.900390625 244.200195312 m 0
 543.599609375 240.799804688 543.299804688 234.099609375 546.5 227 c 0
 547.900390625 223.5 549.700195312 221.200195312 551.299804688 219.299804688 c 0
 556.099609375 222.400390625 563.5 226.700195312 573.299804688 228.799804688 c 0
 578.599609375 230.099609375 583.400390625 230.400390625 587.099609375 230.400390625 c 0
 590.299804688 239.200195312 588.200195312 243.700195312 587.099609375 245 c 0
 582.099609375 252.900390625 564.299804688 254.5 543.900390625 244.200195312 c 0
EndSplineSet
Validated: 33
EndChar

StartChar: uni0411
Encoding: 177 1041 1
Width: 718
VWidth: 0
Flags: HW
LayerCount: 2
Fore
SplineSet
15.099609375 3.7998046875 m 1
 12.900390625 12.2001953125 10.599609375 20.599609375 8.400390625 29 c 1
 13.900390625 30.400390625 28.7001953125 35 40.2998046875 49.2001953125 c 0
 55.900390625 68.2001953125 54.2001953125 90.099609375 53.7001953125 94.599609375 c 0
 51.7998046875 169.299804688 51.599609375 247.299804688 53.7001953125 328.099609375 c 0
 55.099609375 382.200195312 57.400390625 434.799804688 60.400390625 486 c 1
 71.599609375 486.799804688 88.7001953125 489.299804688 107.400390625 497.799804688 c 0
 140.799804688 512.900390625 175.599609375 545.299804688 169.599609375 561.599609375 c 0
 160.799804688 585.200195312 68 569.099609375 63.7998046875 568.299804688 c 1
 63.7998046875 595.700195312 63.7998046875 623.200195312 63.7998046875 650.599609375 c 0
 60.900390625 670.700195312 55.099609375 696.299804688 43.599609375 724.5 c 0
 30.2998046875 757.299804688 13.599609375 782.5 0 800 c 1
 220.599609375 800 441.200195312 800 661.900390625 800 c 1
 648.099609375 776.5 633.900390625 748.400390625 621.599609375 716 c 0
 598 654 589.299804688 597.700195312 586.299804688 554.700195312 c 1
 582.400390625 555.299804688 578.5 555.799804688 574.5 556.400390625 c 1
 577 577.099609375 584.200195312 656.799804688 532.5 712.599609375 c 0
 514.299804688 732.299804688 494.099609375 743.200195312 482.099609375 749.599609375 c 0
 428.900390625 777.799804688 377.700195312 778.299804688 351.099609375 776.5 c 0
 320.900390625 775.900390625 290.599609375 775.400390625 260.400390625 774.799804688 c 1
 259.299804688 562 258.200195312 349.200195312 257 136.5 c 1
 263.400390625 73.2001953125 290.799804688 47.900390625 302.400390625 39.099609375 c 0
 385.599609375 -24.2001953125 576.5 59.7998046875 586.299804688 160 c 0
 595 248.700195312 459.400390625 324 451.900390625 328 c 0
 410.400390625 350.400390625 371.200195312 358.400390625 344.400390625 361.599609375 c 1
 371.099609375 373.400390625 408.099609375 393.400390625 445.200195312 427.099609375 c 0
 474.700195312 453.900390625 495.200195312 481.099609375 509 502.700195312 c 1
 603.099609375 489.900390625 680.200195312 429.200195312 703.900390625 348.200195312 c 0
 727.799804688 266.5 687 195.099609375 661.900390625 151.700195312 c 0
 647.700195312 127.099609375 580.799804688 18.5 465.900390625 2.2001953125 c 0
 451.599609375 0.2001953125 439.5 0 431.200195312 0.2001953125 c 0
 292.5 1.2998046875 153.799804688 2.5 15.099609375 3.7998046875 c 1
EndSplineSet
Validated: 33
EndChar

StartChar: uni0412
Encoding: 178 1042 2
Width: 748
VWidth: 0
Flags: HW
LayerCount: 2
Fore
SplineSet
0 6.7001953125 m 1
 8.2001953125 10.599609375 21.400390625 18.2998046875 33.2998046875 32.400390625 c 0
 42.099609375 42.7001953125 47.2001953125 52.900390625 50.099609375 60.2998046875 c 0
 51.2001953125 286.099609375 52.2998046875 511.700195312 53.599609375 737.5 c 0
 53.5 744.799804688 52.400390625 755.599609375 47.900390625 767.700195312 c 0
 42.099609375 783.299804688 33.2001953125 793.799804688 27.599609375 799.5 c 1
 700.5 800 l 1
 701.799804688 768.799804688 701.200195312 683.400390625 642.400390625 629.200195312 c 0
 625.700195312 613.700195312 599.799804688 596.799804688 501.599609375 577.799804688 c 0
 447.5 567.299804688 369.799804688 555.900390625 273.599609375 554.299804688 c 1
 274.5 520.799804688 275.099609375 486.900390625 275.5 452.5 c 0
 275.799804688 425.799804688 275.900390625 399.400390625 275.900390625 373.299804688 c 0
 275.799804688 366.299804688 275.799804688 359.200195312 275.799804688 352.099609375 c 1
 280.099609375 352.599609375 287.099609375 353.299804688 295.700195312 354 c 2
 295.700195312 354 323.799804688 356.200195312 351.799804688 355.400390625 c 0
 415.599609375 353.599609375 522.799804688 349.299804688 614.900390625 274.900390625 c 0
 733.200195312 179.400390625 739.900390625 26.599609375 740.700195312 0 c 1
 493.700195312 2.099609375 246.700195312 4.599609375 0 6.7001953125 c 1
462.400390625 757.599609375 m 1
 398.299804688 757.299804688 334.299804688 756.900390625 270.299804688 756.400390625 c 1
 271.5 698.700195312 272.599609375 640.900390625 273.700195312 583.200195312 c 1
 363.299804688 566.400390625 442.5 604.200195312 465.900390625 663.700195312 c 0
 480.900390625 702 469.299804688 740 462.400390625 757.599609375 c 1
173.5 467.200195312 m 0
 171.900390625 464.5 173.200195312 459.099609375 176.400390625 457.5 c 0
 181 455.400390625 188.200195312 462.099609375 187.700195312 465.299804688 c 0
 186.599609375 468.799804688 176.5 471.200195312 173.5 467.200195312 c 0
259.599609375 280 m 0
 225.599609375 293.900390625 177.799804688 287.099609375 150.5 256.299804688 c 0
 145.400390625 250.599609375 138 240.400390625 133.099609375 224.700195312 c 1
 144.099609375 215.299804688 163.900390625 200.299804688 192.900390625 192.799804688 c 0
 212.200195312 187.799804688 232 181.200195312 253.400390625 189.599609375 c 0
 262.700195312 193.200195312 269.400390625 198.400390625 273.5 202.200195312 c 1
 273.099609375 148.599609375 272.799804688 94.900390625 272.400390625 41.2998046875 c 1
 310 41.2001953125 347.900390625 41 385.900390625 40.7001953125 c 0
 418 40.400390625 450 40 481.799804688 39.599609375 c 0
 493.400390625 42.2001953125 506.200195312 47.099609375 517.200195312 56.7998046875 c 0
 566.900390625 100.799804688 556.099609375 221.5 493.099609375 275.400390625 c 0
 456.5 306.700195312 407.299804688 310.700195312 354 315.099609375 c 0
 320.900390625 317.799804688 293.299804688 316 274.700195312 314 c 1
 274.299804688 300.299804688 274 286.5 273.599609375 272.700195312 c 1
 270.5 274.700195312 265.700195312 277.5 259.599609375 280 c 0
144.599609375 428 m 0
 141.900390625 428.799804688 139.200195312 425.599609375 139.5 424 c 0
 140 421.900390625 145.400390625 420.5 146.700195312 422.400390625 c 0
 147.799804688 423.700195312 147 427.200195312 144.599609375 428 c 0
132.799804688 599.400390625 m 0
 129.299804688 602.900390625 120.400390625 599.099609375 119.900390625 595.599609375 c 0
 119.599609375 591.799804688 127.700195312 586.200195312 131.700195312 588.900390625 c 0
 134.900390625 590.799804688 135.5 597 132.799804688 599.400390625 c 0
EndSplineSet
Validated: 33
EndChar

StartChar: uni0413
Encoding: 179 1043 3
Width: 664
VWidth: 0
Flags: HW
LayerCount: 2
Fore
SplineSet
24.7001953125 -16.2998046875 m 1
 50.7001953125 33.7001953125 l 1
 50.7001953125 391.799804688 l 1
 57.7001953125 397.599609375 69.2998046875 406 85.400390625 411.400390625 c 0
 107.599609375 418.799804688 118.900390625 414.099609375 127 423.5 c 0
 136.599609375 434.700195312 132.700195312 455.5 125.299804688 468.599609375 c 0
 117.299804688 482.700195312 105.5 487.200195312 94.099609375 494.599609375 c 0
 78.599609375 504.599609375 59.2001953125 522.700195312 43.7998046875 558.700195312 c 1
 44.400390625 623.099609375 45 687.5 45.5 751.900390625 c 1
 0 796.099609375 l 1
 549.799804688 764.900390625 l 1
 650.299804688 800 l 1
 619.200195312 751.400390625 587.099609375 695.299804688 556.700195312 631.5 c 0
 533.799804688 583.400390625 515 537.5 499.5 494.599609375 c 1
 497.900390625 557.299804688 492.599609375 608.799804688 487.400390625 647.099609375 c 0
 483.900390625 672.599609375 479.5 699.299804688 457.900390625 719.900390625 c 0
 443.299804688 733.900390625 426.200195312 739.700195312 414.599609375 742.400390625 c 0
 362 740.700195312 309.5 738.900390625 256.900390625 737.200195312 c 1
 250 160.099609375 l 1
 238.700195312 149.799804688 220.900390625 136.200195312 196.299804688 127.200195312 c 0
 161.5 114.5 138.700195312 120.400390625 133.799804688 108.200195312 c 0
 128.400390625 94.7998046875 147.799804688 68.7001953125 170.400390625 63.099609375 c 0
 182.799804688 60 189.700195312 64.7998046875 218.900390625 70 c 0
 236.299804688 73.099609375 250.799804688 74.5 260.5 75.2001953125 c 1
 265.5 58.7998046875 273.099609375 39.099609375 284.799804688 18 c 0
 293.900390625 1.5 303.599609375 -12.2998046875 312.5 -23.599609375 c 1
 216.5 -21.2001953125 120.599609375 -18.7001953125 24.7001953125 -16.2998046875 c 1
EndSplineSet
Validated: 33
EndChar

StartChar: uni0414
Encoding: 180 1044 4
Width: 880
VWidth: 0
Flags: HW
LayerCount: 2
Fore
SplineSet
738.599609375 153.900390625 m 1
 738.599609375 153.900390625 l 1
 871.5 153.799804688 l 1
 840.599609375 102.200195312 808.799804688 43.2001953125 778.599609375 -23.099609375 c 0
 750 -86.099609375 727.400390625 -145.5 709.200195312 -200 c 1
 695.299804688 -131.799804688 692 -76.7998046875 691.5 -39.2998046875 c 0
 690.799804688 16.2001953125 696.200195312 52 672.400390625 75.599609375 c 0
 650.700195312 97.2998046875 615.799804688 97.2998046875 592.700195312 94.900390625 c 0
 460.5 91.7998046875 328.400390625 89 196.099609375 85.900390625 c 1
 182.599609375 65.599609375 169.400390625 44.099609375 156.200195312 21 c 0
 116.099609375 -50 88 -118.099609375 67.900390625 -179.400390625 c 1
 64.7998046875 -135.799804688 58.400390625 -84.7998046875 45.7001953125 -28.900390625 c 0
 32.7001953125 27.5 16.2001953125 76.2998046875 -0.099609375 117.099609375 c 1
 9.400390625 115.900390625 27.5 115.400390625 47.099609375 124.400390625 c 0
 55.900390625 128.400390625 62.7001953125 133.400390625 67.900390625 137.599609375 c 0
 151 305.799804688 234 473.700195312 317 641.799804688 c 0
 320.299804688 645.799804688 339.900390625 670.5 334.700195312 703.799804688 c 0
 334 708 328.299804688 741 303.799804688 754 c 0
 289 761.599609375 272.700195312 759.700195312 266.799804688 771.5 c 0
 264.700195312 776 264.900390625 780.5 265.400390625 783.299804688 c 0
 327 780.299804688 395.599609375 780.700195312 470.400390625 787.799804688 c 0
 503.5 791.099609375 534.799804688 795.099609375 564.799804688 800.099609375 c 1
 587.200195312 665.799804688 601.400390625 580.900390625 608.900390625 534.200195312 c 0
 633.200195312 386.299804688 647.099609375 298.5 707.700195312 199.700195312 c 0
 720 179.599609375 731.099609375 164 738.599609375 153.900390625 c 1
541.200195312 267.299804688 m 1
 605.099609375 276.099609375 637.700195312 286.900390625 638.400390625 299.599609375 c 0
 638.900390625 307.900390625 627.099609375 316.599609375 603 326.299804688 c 1
 594.799804688 334.799804688 584.099609375 342.599609375 570.700195312 345.400390625 c 0
 544 351.099609375 527.700195312 333.200195312 492.599609375 330.799804688 c 0
 474.200195312 329.400390625 458.599609375 332.900390625 446.799804688 336.700195312 c 1
 428.700195312 422.099609375 410.5 507.700195312 392.099609375 593.099609375 c 0
 391.900390625 598 390.200195312 612.200195312 378.900390625 624.200195312 c 0
 375.599609375 627.5 365.5 638.299804688 353.900390625 637.400390625 c 0
 340.200195312 635.900390625 327 618.200195312 325.799804688 593 c 1
 135.700195312 137.5 l 1
 260.099609375 136.099609375 384.400390625 134.400390625 508.700195312 133 c 1
 499 168.900390625 489.099609375 204.700195312 479.200195312 240.599609375 c 1
 499.900390625 249.599609375 520.400390625 258.599609375 541.200195312 267.299804688 c 1
EndSplineSet
Validated: 37
EndChar

StartChar: uni0415
Encoding: 181 1045 5
Width: 646
VWidth: 0
Flags: HW
LayerCount: 2
Fore
SplineSet
307.400390625 -169.200195312 m 1
 284.299804688 -158.099609375 34 -32.7001953125 3.2001953125 212.400390625 c 0
 -18.400390625 383.900390625 77.599609375 537.200195312 111.599609375 591.599609375 c 0
 141.200195312 638.900390625 171.599609375 675 195 700 c 1
 212.400390625 696.5 229.700195312 693.099609375 247.099609375 689.599609375 c 0
 251.599609375 689.400390625 254.900390625 690.400390625 257.5 691.700195312 c 0
 272.5 699.400390625 276.5 728.799804688 267.900390625 764.599609375 c 1
 305.5 780.700195312 362.299804688 799 432.5 800 c 0
 462.200195312 800.400390625 488.799804688 797.700195312 511.700195312 793.700195312 c 1
 474.599609375 772.5 452.099609375 738.700195312 455.400390625 706.200195312 c 0
 456.099609375 698.900390625 458.5 688.599609375 465.799804688 677 c 1
 468.5 632.5 471.299804688 588.099609375 474.099609375 543.599609375 c 1
 467.700195312 564 450.299804688 609.799804688 405.299804688 641.5 c 0
 337 689.700195312 239.5 683.5 180.299804688 635.200195312 c 0
 144.700195312 606.099609375 131.700195312 569 119.599609375 534.099609375 c 0
 92.5 456.299804688 100.200195312 387.099609375 107.099609375 350.5 c 1
 131.799804688 334.900390625 157.5 338.900390625 165.700195312 351.799804688 c 0
 171.900390625 361.599609375 167.200195312 375 165.700195312 378.900390625 c 1
 292.5 381.900390625 419.400390625 385 546.200195312 388 c 0
 554 391.099609375 560.700195312 393.400390625 565.799804688 395 c 0
 579.599609375 399.400390625 583.099609375 399.5 586.099609375 398.900390625 c 0
 593.400390625 397.599609375 598.5 392.599609375 601.200195312 389.299804688 c 1
 583.900390625 378.5 563 367.5 538.400390625 358.299804688 c 0
 519.299804688 351.099609375 480.200195312 338.700195312 384.5 337.200195312 c 0
 283.799804688 335.599609375 253.299804688 348.299804688 183.700195312 331.700195312 c 0
 159.700195312 325.900390625 140.599609375 319 128.599609375 314.200195312 c 1
 119.099609375 282.200195312 123.099609375 260.700195312 128.200195312 247.299804688 c 0
 138.5 220 154.900390625 210 169.599609375 187.099609375 c 0
 182.599609375 167 194.5 134.799804688 188.400390625 82.400390625 c 1
 177.599609375 58.900390625 175.299804688 33.5 186.799804688 21.400390625 c 0
 202.200195312 5.099609375 246.200195312 8.400390625 282.099609375 46.400390625 c 0
 288.700195312 53 299.099609375 61.400390625 313.400390625 65.2001953125 c 0
 342.200195312 72.900390625 362.5 55.400390625 400.099609375 41 c 1
 400.099609375 41 455.400390625 19.7001953125 520.400390625 23 c 0
 541.299804688 24 572.5 28.2001953125 609.5 43.2998046875 c 0
 614 43.5 618.099609375 40.900390625 619.700195312 37 c 0
 621.5 32.599609375 619.900390625 27.2998046875 615.799804688 24.5 c 0
 606.400390625 20.2001953125 596.5 16 586.099609375 12 c 0
 558 1.2001953125 531.400390625 -6 507.400390625 -10.900390625 c 0
 499.799804688 -16.5 492.099609375 -22.099609375 484.5 -27.7998046875 c 0
 422.400390625 -74.099609375 363.400390625 -121.400390625 307.400390625 -169.200195312 c 1
EndSplineSet
Validated: 33
EndChar

StartChar: uni0416
Encoding: 182 1046 6
Width: 1232
VWidth: 0
Flags: HW
LayerCount: 2
Fore
SplineSet
74.5 664.5 m 0
 70.400390625 660.799804688 91.099609375 697 206.200195312 810.200195312 c 1
 257 731.200195312 312.200195312 650.400390625 372.099609375 568.299804688 c 0
 398.5 532.200195312 424.900390625 497.099609375 451.200195312 462.900390625 c 1
 417.400390625 416.400390625 382.400390625 362.799804688 348.900390625 301.700195312 c 0
 292.200195312 198.299804688 254.700195312 100.799804688 229.5 18 c 1
 153.5 25.7998046875 77.599609375 33.5 1.599609375 41.2998046875 c 1
 41 120.599609375 91.5 207.099609375 156.700195312 295.400390625 c 0
 179.900390625 326.900390625 203.299804688 356.299804688 226.5 383.799804688 c 1
 218.799804688 386.400390625 205.200195312 392.299804688 193.900390625 405.5 c 0
 189.700195312 410.400390625 186.799804688 415.200195312 184.599609375 419.5 c 1
 224.200195312 419.5 270.900390625 422.5 322.599609375 431.900390625 c 0
 359.599609375 438.599609375 392.799804688 447.400390625 421.799804688 456.700195312 c 1
 360.299804688 527 298.799804688 597.299804688 237.299804688 667.599609375 c 0
 228.5 677 213.200195312 690.400390625 190.799804688 697.099609375 c 0
 130.599609375 715.099609375 78.099609375 667.900390625 74.5 664.5 c 0
524.099609375 509.5 m 1
 526.200195312 548.299804688 528.200195312 587 530.299804688 625.799804688 c 0
 534.599609375 642.200195312 544.799804688 690.700195312 521 742.099609375 c 0
 509.5 767 493.799804688 784.200195312 482.200195312 794.799804688 c 1
 563.900390625 794.299804688 645.5 793.799804688 727.200195312 793.200195312 c 1
 717.599609375 764 708.5 729.099609375 702.400390625 689.299804688 c 0
 694.5 637.5 694 591.5 696.200195312 554.400390625 c 0
 695.200195312 452.599609375 694.099609375 350.799804688 693.099609375 249 c 0
 692.700195312 222.200195312 694.799804688 187.5 704 148.200195312 c 0
 714.700195312 102 731.5 65.400390625 745.900390625 39.7001953125 c 1
 658.599609375 37.599609375 571.200195312 35.599609375 483.900390625 33.5 c 1
 501.400390625 90.5 517 164.200195312 518 250.599609375 c 0
 518.400390625 284.099609375 516.5 315.200195312 513.299804688 343.599609375 c 1
 516.099609375 342.400390625 564.200195312 322.799804688 598.599609375 349.799804688 c 0
 609.099609375 358 615.200195312 368.099609375 618.799804688 376.200195312 c 1
 617.599609375 376.400390625 609.200195312 377.900390625 604.799804688 385.5 c 0
 600.799804688 392.599609375 601.900390625 402 607.900390625 408.799804688 c 0
 651.700195312 440.099609375 666.5 487.599609375 652.900390625 511.099609375 c 0
 637.5 537.400390625 577.700195312 548.799804688 524.099609375 509.5 c 1
759.799804688 450.599609375 m 1
 794.299804688 521.200195312 857.599609375 626.700195312 969.099609375 721.900390625 c 0
 1028 772.200195312 1086.09960938 807.400390625 1135 832 c 1
 1145.29980469 824.799804688 1155.70019531 817.5 1166 810.299804688 c 1
 1149.79980469 793.200195312 1125.20019531 762.900390625 1108.59960938 718.799804688 c 0
 1088.09960938 664.299804688 1090.20019531 616.5 1093.09960938 591.700195312 c 1
 1086.90039062 592.200195312 1080.70019531 592.700195312 1074.5 593.299804688 c 1
 1071.40039062 636.099609375 1041.09960938 670.5 1003.20019531 677 c 0
 958.5 684.700195312 926.200195312 649.799804688 924.099609375 647.5 c 0
 894.299804688 615.599609375 860 571.099609375 832.599609375 512.599609375 c 0
 823 492 815.400390625 472.200195312 809.299804688 453.700195312 c 1
 827 451.5 846.200195312 449.799804688 866.700195312 449 c 0
 899.799804688 447.799804688 930 449.299804688 956.599609375 452.099609375 c 1
 1002.09960938 398.099609375 1050.20019531 335.099609375 1097.70019531 262.900390625 c 0
 1149 184.900390625 1190.20019531 110.299804688 1223.29980469 42.7001953125 c 1
 1143.20019531 41.7001953125 1063.09960938 40.599609375 983 39.599609375 c 1
 966.200195312 112.5 933.400390625 213.599609375 865.200195312 318.700195312 c 0
 830.400390625 372.400390625 793.5 416 759.799804688 450.599609375 c 1
EndSplineSet
Validated: 33
EndChar

StartChar: uni0417
Encoding: 183 1047 7
Width: 706
VWidth: 0
Flags: HW
LayerCount: 2
Fore
SplineSet
98.900390625 446.900390625 m 1
 92.400390625 504.799804688 80.2998046875 573.099609375 57.7998046875 647.799804688 c 0
 40.400390625 705.700195312 20.099609375 756.5 0 800 c 1
 100.299804688 795.700195312 201.799804688 790.599609375 304.400390625 784.799804688 c 0
 436.299804688 777.299804688 566.200195312 768.599609375 694 758.900390625 c 1
 599.099609375 603.099609375 504.200195312 447.400390625 409.400390625 291.599609375 c 1
 413.900390625 282.200195312 419.299804688 275.299804688 424.599609375 270.299804688 c 0
 454.400390625 242.099609375 509.200195312 242.700195312 564.599609375 267.299804688 c 0
 569.400390625 268.900390625 628.400390625 287.5 665.099609375 253.599609375 c 0
 668.400390625 250.599609375 683.599609375 235.900390625 689.5 204.900390625 c 0
 693.200195312 185.299804688 697.900390625 133.799804688 640.799804688 57.2998046875 c 0
 554.099609375 -59.099609375 417.599609375 -108.900390625 331.799804688 -139 c 0
 268.700195312 -161.200195312 173.900390625 -188.400390625 53.2998046875 -199.900390625 c 1
 58.099609375 -152.099609375 59.900390625 -95.5 54.7998046875 -32.5 c 0
 51.599609375 6.900390625 46.099609375 43 39.5 75.5 c 1
 45.599609375 76 51.7001953125 76.5 57.7998046875 77 c 1
 81.099609375 32.7998046875 97.7001953125 1.099609375 105 -12.7998046875 c 0
 143.200195312 -85.7998046875 153.099609375 -105.400390625 178.099609375 -120.900390625 c 0
 208.799804688 -139.900390625 240.900390625 -139.5 252.700195312 -139.200195312 c 0
 317.799804688 -137.5 363.700195312 -91.900390625 415.599609375 -40.2998046875 c 0
 441 -15.099609375 475.299804688 23.400390625 508.400390625 76.900390625 c 0
 507.900390625 82 507.400390625 87 506.900390625 92.099609375 c 1
 505.099609375 91.099609375 494.900390625 85.400390625 482.5 89.099609375 c 0
 472.599609375 92 467.299804688 99.099609375 465.799804688 101.299804688 c 0
 484.5 160.799804688 467 192.599609375 461.200195312 201.799804688 c 0
 430.900390625 249.700195312 356.900390625 250.900390625 290.700195312 252 c 0
 242 252.799804688 202 246 175 239.799804688 c 1
 252.099609375 394.099609375 329.200195312 548.400390625 406.400390625 702.599609375 c 1
 410.200195312 690.599609375 415.799804688 673.799804688 423.099609375 653.900390625 c 0
 437.799804688 613.799804688 443 605.900390625 452 600.599609375 c 0
 471.5 589.200195312 494.200195312 598.299804688 496.099609375 599.099609375 c 0
 521.799804688 609.900390625 527.599609375 636.400390625 528.099609375 638.700195312 c 1
 529.900390625 632.200195312 534.5 619.099609375 543.299804688 617.400390625 c 0
 552.599609375 615.700195312 561.400390625 627.5 569.200195312 637.200195312 c 0
 608.599609375 686.099609375 630.900390625 691.099609375 628.599609375 702.599609375 c 0
 626.099609375 715.200195312 595.900390625 728.5 459.599609375 725.400390625 c 1
 375.400390625 734.5 291.200195312 743.700195312 206.900390625 752.799804688 c 1
 186.700195312 713.400390625 166.200195312 668.200195312 147.5 617.299804688 c 0
 124.799804688 555.299804688 109.5 497.599609375 98.900390625 446.900390625 c 1
EndSplineSet
Validated: 33
EndChar

StartChar: uni0418
Encoding: 184 1048 8
Width: 808
VWidth: 0
Flags: HW
LayerCount: 2
Fore
SplineSet
33.7001953125 23.599609375 m 1
 40.5 150.400390625 47.2998046875 277.200195312 54 404 c 0
 53 426.099609375 51.5 448.900390625 49.599609375 472.299804688 c 0
 48.2001953125 489.099609375 46.599609375 505.599609375 44.7998046875 521.599609375 c 1
 51.599609375 523 60.7001953125 525.700195312 70.2998046875 531.099609375 c 0
 87.400390625 540.700195312 97.2998046875 553.799804688 102.099609375 561.299804688 c 1
 101.599609375 570.299804688 101 579.299804688 100.5 588.400390625 c 1
 82.2998046875 601.599609375 72.2998046875 616 67.099609375 625 c 0
 59.900390625 637.400390625 52.2001953125 650.900390625 56 666.5 c 0
 58.2001953125 675.599609375 63.5 681.900390625 67.099609375 685.599609375 c 0
 67.2001953125 693.799804688 66.2998046875 716 51.2001953125 738.099609375 c 0
 37.900390625 757.5 20.599609375 766.5 13 769.900390625 c 1
 13 777.900390625 13 785.799804688 13 793.799804688 c 1
 51.7998046875 788 97.2998046875 783.900390625 148.299804688 784.299804688 c 0
 194.599609375 784.599609375 236.299804688 788.5 272.400390625 793.799804688 c 1
 261.400390625 702.099609375 264.599609375 625.400390625 258.099609375 569.400390625 c 0
 250.099609375 501.200195312 268.5 481 278.799804688 473.900390625 c 0
 305 455.799804688 329.099609375 488 426.799804688 504.099609375 c 0
 479 512.700195312 512.200195312 510.099609375 549.299804688 537.5 c 0
 564.400390625 548.599609375 574.700195312 560.599609375 581.099609375 569.299804688 c 1
 582.5 597.700195312 582.200195312 631 577.900390625 668 c 0
 572.400390625 715.799804688 561.700195312 756.599609375 550.799804688 788.900390625 c 1
 634.099609375 792.599609375 717.299804688 796.299804688 800.599609375 800 c 1
 800.599609375 786.200195312 800.599609375 772.400390625 800.599609375 758.599609375 c 0
 796.700195312 755 789.5 747 786.299804688 734.700195312 c 0
 780.299804688 711.599609375 793.799804688 692.900390625 795.799804688 690.099609375 c 0
 795.299804688 650.299804688 794.700195312 610.5 794.200195312 570.799804688 c 1
 786.099609375 572.599609375 749.200195312 580.200195312 714.599609375 558.099609375 c 0
 694.700195312 545.400390625 681.599609375 526.700195312 676.400390625 512 c 0
 660.200195312 465.700195312 700.700195312 395.400390625 781.400390625 346.5 c 1
 776.799804688 336.400390625 769 315.900390625 770.299804688 289.200195312 c 0
 771.700195312 259.599609375 783.400390625 238.299804688 789.400390625 228.700195312 c 1
 792.599609375 161.900390625 795.799804688 95 798.900390625 28.2001953125 c 1
 719.299804688 24.5 639.799804688 20.7998046875 560.200195312 17.099609375 c 1
 567.099609375 158.200195312 574 299.299804688 580.900390625 440.400390625 c 0
 581.799804688 440.799804688 602.099609375 450.299804688 603.200195312 467.5 c 0
 604.299804688 485.5 583.400390625 497.200195312 573 500.900390625 c 0
 551.700195312 508.5 526 499.900390625 506.200195312 480.200195312 c 1
 423.5 453.099609375 340.700195312 426.099609375 258 399 c 1
 265.400390625 279.700195312 272.900390625 160.299804688 280.299804688 41 c 1
 198.099609375 35.2998046875 115.900390625 29.400390625 33.7001953125 23.599609375 c 1
EndSplineSet
Validated: 33
EndChar

StartChar: uni0408
Encoding: 168 1032 9
Width: 325
VWidth: 0
Flags: HW
LayerCount: 2
Fore
SplineSet
62.2998046875 781.799804688 m 1
 148.799804688 787.900390625 235.299804688 793.900390625 321.799804688 800 c 1
 318.799804688 680.099609375 315.700195312 560.200195312 312.700195312 440.400390625 c 1
 280.5 440.299804688 256.5 422.599609375 253.5 402.5 c 0
 253 399.099609375 252 388.5 261.099609375 375.200195312 c 0
 259.700195312 373.400390625 245.900390625 355.099609375 252 341.799804688 c 0
 258.400390625 327.900390625 286 320.400390625 315.700195312 335.700195312 c 1
 316.700195312 245.200195312 317.700195312 154.599609375 318.700195312 64.099609375 c 1
 297.700195312 63.099609375 260.799804688 58.400390625 221.599609375 36.7998046875 c 0
 195.799804688 22.599609375 177.400390625 5.7998046875 165.5 -7.2001953125 c 0
 120.5 -85.599609375 75.5 -164 30.400390625 -242.400390625 c 0
 11.7001953125 -281.299804688 -5.400390625 -284.700195312 -12.099609375 -284.900390625 c 0
 -29.2001953125 -285.5 -42 -267.099609375 -77.400390625 -212.099609375 c 0
 -94.400390625 -185.599609375 -113.799804688 -155.099609375 -135.099609375 -121.099609375 c 1
 -129.5 -121.599609375 -124 -122.099609375 -118.400390625 -122.599609375 c 1
 -90.7001953125 -167.5 -47.7001953125 -195.700195312 -9.099609375 -189.400390625 c 0
 34.7001953125 -182.200195312 56.7998046875 -133.099609375 75.900390625 -90.7998046875 c 0
 96.5 -45.2001953125 100.900390625 -3.7001953125 101.700195312 21.5 c 0
 114.200195312 120.900390625 122.5 234.599609375 121.400390625 359.900390625 c 0
 120.5 467.599609375 112.700195312 566.299804688 101.700195312 654.299804688 c 0
 103.299804688 670.5 103.900390625 700 91.099609375 733.200195312 c 0
 82.599609375 755.099609375 71.2001953125 771.200195312 62.2998046875 781.799804688 c 1
EndSplineSet
Validated: 33
EndChar

StartChar: uni041A
Encoding: 186 1050 10
Width: 913
VWidth: 0
Flags: HW
LayerCount: 2
Fore
SplineSet
42.5 0.099609375 m 1
 52.2998046875 43.7998046875 60.900390625 91.900390625 67 143.900390625 c 0
 77 228.799804688 78.2001953125 305.900390625 75.2001953125 372.700195312 c 1
 86.7001953125 372.700195312 158.200195312 373.599609375 192.900390625 425 c 0
 198.900390625 433.900390625 213.400390625 455.299804688 206 470.799804688 c 0
 189.299804688 505.5 76.7001953125 478.5 72 477.299804688 c 1
 74.400390625 510.099609375 75.2998046875 546.200195312 73.599609375 585.200195312 c 0
 72.599609375 607.599609375 70.900390625 628.799804688 68.7001953125 648.900390625 c 0
 70.400390625 651.400390625 75.7998046875 660.099609375 73.599609375 670.099609375 c 0
 70.7998046875 683 56.7001953125 693.299804688 39.2001953125 693 c 1
 26.099609375 719.700195312 13.099609375 746.400390625 0 773.099609375 c 1
 39.099609375 766.400390625 91.7998046875 761.299804688 153.599609375 766.599609375 c 0
 213.799804688 771.700195312 263.700195312 784.900390625 300.700195312 797.700195312 c 1
 284.700195312 652.900390625 274.299804688 495.5 272.900390625 327 c 0
 272.200195312 239.299804688 274 154.700195312 277.799804688 73.7001953125 c 0
 280.799804688 61.5 284.900390625 47.7001953125 290.900390625 32.7998046875 c 0
 296.099609375 19.7998046875 301.700195312 8.400390625 307.200195312 -1.5 c 1
 281.700195312 -1.599609375 256.099609375 -1.599609375 230.400390625 -1.5 c 0
 167.299804688 -1.400390625 104.599609375 -0.900390625 42.5 0.099609375 c 1
299.799804688 403.299804688 m 0
 304.900390625 406.400390625 316.200195312 397.5 315.099609375 394.400390625 c 0
 314.200195312 391.200195312 300.200195312 390 297.599609375 395.599609375 c 0
 296.5 398.099609375 297.5 401.900390625 299.799804688 403.299804688 c 0
738.700195312 851.5 m 1
 738.5 845.299804688 738.299804688 839.099609375 738.200195312 832.900390625 c 0
 736.200195312 757.700195312 734.200195312 682.599609375 732.200195312 607.400390625 c 0
 729.400390625 604.299804688 726.700195312 601.200195312 724 598.099609375 c 1
 710.299804688 638.200195312 676.400390625 667.799804688 635.799804688 674.900390625 c 0
 589.200195312 683.099609375 541.200195312 660.299804688 516.5 617.700195312 c 1
 475.099609375 575.200195312 433.700195312 532.700195312 392.299804688 490.200195312 c 1
 355.599609375 465.299804688 349.799804688 423 366.200195312 403.599609375 c 0
 377.200195312 390.599609375 399 387.099609375 420.099609375 392.200195312 c 0
 447.099609375 403.400390625 470.299804688 410.599609375 487.099609375 415.099609375 c 0
 550 432.099609375 565.799804688 424.099609375 572.099609375 420 c 0
 584 412.299804688 589.799804688 400.200195312 592.799804688 391.700195312 c 0
 660.200195312 289.799804688 731.700195312 186.400390625 807.400390625 81.7001953125 c 0
 841.099609375 35 874.900390625 -10.7001953125 908.700195312 -55.599609375 c 1
 847.099609375 -32.099609375 780.599609375 -9.400390625 709.299804688 11.400390625 c 0
 665.5 24.2001953125 622.900390625 35.400390625 581.799804688 45.2001953125 c 1
 498.799804688 187.099609375 437.099609375 291.5 415.099609375 330.099609375 c 0
 411.599609375 336.299804688 402.599609375 352 385.700195312 367.700195312 c 0
 363 388.700195312 339.099609375 397.900390625 325.200195312 402 c 1
 327.5 414.900390625 331.400390625 430.599609375 338.299804688 447.799804688 c 0
 345.900390625 466.799804688 354.900390625 482.099609375 362.799804688 493.599609375 c 0
 429.5 569 506 647.900390625 593.299804688 727.299804688 c 0
 642.599609375 772.200195312 691.299804688 813.5 738.700195312 851.5 c 1
EndSplineSet
Validated: 33
EndChar

StartChar: uni041B
Encoding: 187 1051 11
Width: 853
VWidth: 0
Flags: HW
LayerCount: 2
Fore
SplineSet
0 3.599609375 m 1
 9.400390625 121.799804688 37.900390625 210.5 62.2001953125 269.5 c 0
 93.7998046875 346.299804688 136.200195312 414.700195312 221 551.5 c 0
 246.700195312 592.900390625 268.400390625 626.700195312 283.200195312 649.299804688 c 1
 306.900390625 669.900390625 317.700195312 699.5 309.700195312 724.099609375 c 0
 301.5 749.299804688 276.099609375 761.700195312 268.299804688 765.5 c 0
 254.599609375 772.200195312 242 774.099609375 233.799804688 774.700195312 c 1
 233.799804688 782.400390625 233.799804688 790 233.799804688 797.700195312 c 1
 275.5 793.900390625 321.299804688 791.599609375 370.799804688 791.900390625 c 0
 422.099609375 792.200195312 469.5 795.299804688 512.400390625 800 c 1
 517.900390625 785.200195312 523.299804688 770.400390625 528.799804688 755.599609375 c 1
 526.099609375 746.900390625 516.400390625 712.900390625 533.099609375 675.599609375 c 0
 546.099609375 646.599609375 568 631.5 576.799804688 626.099609375 c 1
 651.599609375 425.799804688 726.400390625 225.599609375 801.200195312 25.2998046875 c 1
 816.5 7.2998046875 831.900390625 -10.7998046875 847.200195312 -28.7998046875 c 1
 752.400390625 -21.5 657.700195312 -14.2001953125 562.900390625 -6.900390625 c 1
 497.700195312 183 432.5 372.900390625 367.200195312 562.799804688 c 1
 377.799804688 564.700195312 393.5 568.5 410.900390625 576.599609375 c 0
 449.799804688 594.700195312 499.700195312 635.5 491.5 666.400390625 c 0
 487.099609375 682.700195312 468 690.400390625 451.200195312 697.5 c 0
 402.099609375 718.200195312 355.700195312 704.299804688 339.599609375 698.700195312 c 1
 327.599609375 672.700195312 308.799804688 633.599609375 283.200195312 587.099609375 c 0
 260.700195312 546.299804688 243.799804688 519.400390625 236 506.5 c 0
 213.400390625 469.400390625 147.599609375 360.700195312 134.700195312 238.400390625 c 0
 130 193.599609375 128.299804688 108.799804688 173.799804688 2.400390625 c 1
 115.900390625 2.900390625 57.900390625 3.2001953125 0 3.599609375 c 1
EndSplineSet
Validated: 33
EndChar

StartChar: uni0409
Encoding: 169 1033 12
Width: 1000
VWidth: 0
Flags: H
LayerCount: 2
Fore
SplineSet
-0.099609375 5.2998046875 m 1
 18.5 82.2001953125 43.2001953125 165.700195312 76.2001953125 253.799804688 c 0
 136.5 415.299804688 208.799804688 549.900390625 276.900390625 657.5 c 1
 274.5 668.5 266.900390625 696.299804688 241.799804688 718.900390625 c 0
 227.200195312 732 212.200195312 738.599609375 202.299804688 741.900390625 c 1
 197.900390625 752.5 193.5 763.099609375 189.099609375 773.700195312 c 1
 228.299804688 765.799804688 286.099609375 758.900390625 354.700195312 768.200195312 c 0
 403.400390625 774.799804688 443.799804688 787.700195312 474.299804688 800 c 1
 482.200195312 767.900390625 490.200195312 735.700195312 498.400390625 703.5 c 0
 547.900390625 509.900390625 601.599609375 322.299804688 658.700195312 140.900390625 c 0
 663 129.799804688 677.200195312 97.2998046875 709.200195312 85 c 0
 750.099609375 69.2998046875 791.299804688 97.5 817.799804688 115.700195312 c 0
 827 122 887.299804688 164.5 894.599609375 212.200195312 c 0
 905.400390625 283.200195312 801.599609375 384.700195312 623.700195312 425 c 1
 649.299804688 453.200195312 672 473.700195312 688.400390625 487.5 c 0
 719.599609375 513.700195312 742.299804688 527.700195312 749.799804688 556.599609375 c 0
 753.400390625 570.299804688 752.299804688 582.5 750.900390625 590.599609375 c 1
 779.599609375 581.700195312 820.200195312 567.5 867.200195312 545.599609375 c 0
 922.5 519.799804688 950.5 506.400390625 970.299804688 479.799804688 c 0
 1005.40039062 432.799804688 1000.5 375.799804688 998.799804688 356.900390625 c 0
 997.299804688 340.099609375 992.5 306.799804688 927.5 205.5 c 0
 864.400390625 107.299804688 831.599609375 57.400390625 767.299804688 20.099609375 c 0
 733 0.2001953125 701.200195312 -9.7001953125 679.5 -15 c 0
 612.599609375 -23 545.700195312 -31.099609375 478.799804688 -39.099609375 c 1
 470.799804688 -10.900390625 462.700195312 17.2001953125 454.700195312 45.400390625 c 1
 465.400390625 46.7998046875 481.299804688 48.900390625 500.799804688 50.900390625 c 0
 551 56.099609375 558.400390625 54.2001953125 569.900390625 60.7998046875 c 0
 597.700195312 76.599609375 615.299804688 121.799804688 600.599609375 145.299804688 c 0
 587.200195312 166.799804688 550.5 164.5 505.200195312 161.799804688 c 0
 472.900390625 159.799804688 446.200195312 153.400390625 427.299804688 147.5 c 1
 425.5 151.900390625 423.599609375 156.299804688 421.799804688 160.700195312 c 0
 419.5 186.200195312 416.200195312 212.599609375 411.900390625 239.700195312 c 0
 393.400390625 356.5 359.799804688 457.599609375 323 541.400390625 c 1
 326.5 539.099609375 347.700195312 526 370.200195312 533.700195312 c 0
 394.900390625 542.200195312 402 569.5 405.299804688 582 c 0
 407.099609375 588.900390625 419.900390625 638.299804688 386.700195312 663.200195312 c 0
 368.900390625 676.599609375 340.700195312 680.700195312 318.700195312 666.5 c 0
 294.900390625 651.200195312 284.900390625 618.799804688 296.799804688 589.700195312 c 1
 281 575.200195312 259 553.299804688 236.5 523.900390625 c 0
 141.299804688 399.799804688 130.299804688 266.400390625 128.400390625 229.299804688 c 0
 123.299804688 131.200195312 146.799804688 52.2998046875 165.700195312 4.400390625 c 1
 110.299804688 4.599609375 55.099609375 5 -0.099609375 5.2998046875 c 1
EndSplineSet
Validated: 33
EndChar

StartChar: uni041C
Encoding: 188 1052 13
Width: 1108
VWidth: 0
Flags: HW
LayerCount: 2
Fore
SplineSet
0 6.7001953125 m 1
 0 12.2001953125 0 17.7001953125 0 23.2001953125 c 0
 6.900390625 30.5 17.7998046875 44 24.7998046875 63.7001953125 c 0
 30.7001953125 80.2001953125 31.599609375 94.7998046875 31.400390625 104.200195312 c 0
 34.099609375 152.099609375 36.2998046875 193 38 224.799804688 c 0
 42.900390625 316.099609375 44.099609375 344.299804688 44.599609375 378.5 c 0
 45.099609375 408.400390625 45 437.599609375 44.599609375 466.099609375 c 1
 54.400390625 474.900390625 75.099609375 490.900390625 105.700195312 497.5 c 0
 124.599609375 501.599609375 140.900390625 500.700195312 152 499.200195312 c 1
 150.900390625 502.5 143.900390625 524.799804688 157 547.099609375 c 0
 170.700195312 570.400390625 195.099609375 574.700195312 198.299804688 575.200195312 c 0
 208.599609375 606.900390625 198.900390625 623 196.599609375 626.400390625 c 0
 179.099609375 653 123 659 64.5 624.799804688 c 1
 60.400390625 648.200195312 53.900390625 675.799804688 43 705.799804688 c 0
 33.7998046875 731.299804688 23.2998046875 753.400390625 13.2998046875 771.900390625 c 1
 118.5 780.200195312 223.700195312 788.400390625 329 796.700195312 c 1
 335.099609375 693 348.099609375 577.5 372 453 c 0
 387.299804688 373 405.5 298.5 424.900390625 229.900390625 c 0
 429.599609375 220.700195312 453.5 175.700195312 502.599609375 163.799804688 c 0
 553.299804688 151.5 596 182.799804688 608.400390625 191.900390625 c 0
 641.299804688 216.099609375 655.799804688 245.900390625 707.599609375 431.5 c 0
 731 516.599609375 743.099609375 560 751.900390625 605 c 0
 762.700195312 659.799804688 771.599609375 720.099609375 776.700195312 785.099609375 c 1
 874.599609375 790.099609375 972.5 795 1070.40039062 800 c 1
 1066 792.799804688 1061 783.200195312 1057.20019531 771.400390625 c 0
 1052.20019531 756.200195312 1050.79980469 742.700195312 1050.59960938 732.799804688 c 0
 1050.79980469 623.5 1051 514.299804688 1051.20019531 405 c 1
 1041.5 403.099609375 1014.5 396.400390625 995 371.900390625 c 0
 989.099609375 364.400390625 971.900390625 342.799804688 978.5 324 c 0
 985.400390625 304.299804688 1016.79980469 291.400390625 1054.5 299.200195312 c 1
 1055.79980469 217.299804688 1057.09960938 135.400390625 1058.40039062 53.5 c 0
 1059.59960938 47.2001953125 1063.09960938 34.099609375 1073.79980469 21.5 c 0
 1083 10.7001953125 1093.40039062 5.2998046875 1099.09960938 2.7998046875 c 0
 1099.09960938 -1.2001953125 1099.09960938 -5.2998046875 1099.09960938 -9.2998046875 c 1
 1006.20019531 -4.5 913.299804688 0.2001953125 820.400390625 5 c 1
 823.799804688 10.599609375 827.700195312 18.400390625 830.299804688 28.099609375 c 0
 834.900390625 45.5 833.099609375 60.400390625 831.400390625 68.900390625 c 0
 839.700195312 250.900390625 847.900390625 432.799804688 856.200195312 614.799804688 c 1
 852.400390625 623.799804688 847.299804688 638.099609375 844.599609375 656.099609375 c 0
 838.5 697.299804688 850.299804688 721.900390625 836.299804688 735.400390625 c 0
 831.599609375 739.900390625 822.599609375 744.700195312 803.200195312 742 c 1
 792.099609375 670.900390625 780.700195312 611.799804688 771.799804688 568.5 c 0
 739.900390625 414 710.200195312 321.400390625 702.400390625 297.5 c 0
 681.799804688 234.400390625 671.5 202.900390625 654.5 171.900390625 c 0
 608 87.5 543 35.099609375 497.400390625 5.099609375 c 1
 471.799804688 49 446.200195312 99.099609375 423 155.5 c 0
 367.700195312 289.799804688 344.700195312 413.599609375 335.400390625 510.799804688 c 0
 330.400390625 570.799804688 325.5 630.900390625 320.5 690.900390625 c 0
 319.200195312 695.700195312 304.5 749.299804688 287.400390625 748.700195312 c 0
 270.099609375 748.099609375 259.900390625 688.700195312 256 666.099609375 c 0
 234.299804688 539.700195312 236.400390625 281.599609375 242.799804688 71.2001953125 c 0
 245.200195312 64.7998046875 248.900390625 56.599609375 254.900390625 48.099609375 c 0
 259.799804688 41.099609375 264.799804688 35.7001953125 269.200195312 31.599609375 c 1
 269.200195312 25.7001953125 269.200195312 19.7998046875 269.200195312 14 c 1
 179.599609375 11.5 89.7998046875 9.099609375 0 6.7001953125 c 1
EndSplineSet
Validated: 33
EndChar

StartChar: uni041D
Encoding: 189 1053 14
Width: 880
VWidth: 0
Flags: HW
LayerCount: 2
Fore
SplineSet
0 6.7001953125 m 1
 12.400390625 35.5 24.2998046875 66.599609375 35.099609375 100.200195312 c 0
 66 196.299804688 79 284.900390625 83.5 359 c 1
 164.900390625 392.700195312 193 475.5 167 522.700195312 c 0
 149.400390625 554.700195312 106 572 60.099609375 569.5 c 1
 46.7001953125 646.299804688 33.400390625 723.200195312 20 800 c 1
 70.2998046875 795.900390625 125.099609375 793.799804688 183.599609375 795 c 0
 217.900390625 795.700195312 250.799804688 797.400390625 282.099609375 800 c 1
 278.799804688 761.599609375 275.400390625 723.200195312 272.099609375 684.799804688 c 1
 252.900390625 633.700195312 260.200195312 580.299804688 292.099609375 547.799804688 c 0
 309.5 530.099609375 330.099609375 522.700195312 343.900390625 519.400390625 c 0
 415.700195312 499.900390625 487.5 480.400390625 559.299804688 460.900390625 c 0
 575 454.900390625 592.799804688 458.799804688 604.400390625 470.900390625 c 0
 616 482.900390625 619.200195312 500.700195312 612.799804688 516 c 1
 611.099609375 609 609.5 701.900390625 607.799804688 794.900390625 c 1
 695.799804688 790.400390625 783.700195312 786 871.700195312 781.5 c 1
 860.099609375 763.099609375 847.299804688 739.099609375 836.599609375 709.700195312 c 0
 824.799804688 677 819.299804688 647.599609375 816.599609375 624.5 c 1
 792 616.700195312 775.5 593.299804688 776.5 567.700195312 c 0
 777.400390625 542.400390625 795.200195312 520.5 819.900390625 514.299804688 c 1
 817.700195312 356.200195312 815.400390625 198.099609375 813.200195312 40 c 0
 814.599609375 35.2001953125 817 28.599609375 821.599609375 21.599609375 c 0
 826.200195312 14.599609375 831.200195312 9.7001953125 835 6.599609375 c 1
 747 4.400390625 659.099609375 2.099609375 571.099609375 -0.099609375 c 1
 575.400390625 5.099609375 580.099609375 11.7998046875 584.5 19.900390625 c 0
 589.200195312 28.5 592.299804688 36.599609375 594.5 43.2998046875 c 0
 598.200195312 119.700195312 600.5 198.200195312 601.200195312 278.799804688 c 0
 601.5 315.5 601.5 351.700195312 601.200195312 387.400390625 c 1
 568 404.5 527.099609375 422.400390625 479.299804688 437.5 c 0
 432.799804688 452.200195312 390.299804688 460.799804688 354 465.900390625 c 1
 341.700195312 486.900390625 318.599609375 498.799804688 295.5 496 c 0
 265.799804688 492.5 251.700195312 466.700195312 250.400390625 464.299804688 c 0
 253.799804688 428.099609375 257.099609375 391.900390625 260.5 355.700195312 c 1
 257.200195312 238.200195312 253.799804688 120.799804688 250.5 3.2998046875 c 1
 219.700195312 7.400390625 186.200195312 10.400390625 150.299804688 11.7001953125 c 0
 94.900390625 13.7001953125 44.5 11.2998046875 0 6.7001953125 c 1
EndSplineSet
Validated: 33
EndChar

StartChar: uni040A
Encoding: 170 1034 15
Width: 1212
VWidth: 0
Flags: HW
LayerCount: 2
Fore
SplineSet
29.7001953125 8.5 m 1
 31.2001953125 20.599609375 32.7001953125 32.7001953125 34 44.7001953125 c 0
 58 251.799804688 62.400390625 452.599609375 51.599609375 645.799804688 c 1
 69.7998046875 643.700195312 96.099609375 642.200195312 127.599609375 645.799804688 c 0
 162.299804688 649.799804688 180.599609375 652.099609375 194.799804688 666.700195312 c 0
 213.700195312 686.099609375 220.200195312 721.5 208 740.5 c 0
 188.799804688 770.5 116.900390625 768.400390625 28.599609375 730.599609375 c 1
 19.099609375 753.799804688 9.5 776.900390625 0 800 c 1
 59 794.599609375 122.299804688 791.599609375 189.400390625 792.299804688 c 0
 214.900390625 792.5 239.799804688 793.299804688 264 794.5 c 1
 260.700195312 736.200195312 257.400390625 677.799804688 254.099609375 619.5 c 0
 249.099609375 592.900390625 257.299804688 568 275 556.799804688 c 0
 279 554.299804688 286.599609375 550.5 298.099609375 550.200195312 c 0
 390.900390625 542.5 483.799804688 534.799804688 576.599609375 527.099609375 c 1
 577 553.900390625 577.299804688 580.700195312 577.700195312 607.5 c 0
 577.299804688 625.799804688 577 644.200195312 576.599609375 662.5 c 0
 576.400390625 674.900390625 574.299804688 700 559 726.299804688 c 0
 547.799804688 745.5 534 757.900390625 524.900390625 764.799804688 c 0
 521.599609375 770.700195312 518.299804688 776.5 515 782.400390625 c 1
 608.900390625 784.599609375 702.900390625 786.799804688 796.799804688 789 c 1
 793.400390625 749.900390625 790.099609375 718.5 788 698.700195312 c 0
 775.299804688 580.400390625 766.799804688 541.299804688 773.700195312 478.5 c 0
 777.099609375 447.299804688 783.099609375 422.799804688 786.900390625 409.099609375 c 1
 695.200195312 389.200195312 639.200195312 342.700195312 642.700195312 305.599609375 c 0
 644.900390625 281.400390625 672.400390625 263.700195312 679 259.400390625 c 0
 727 228.5 782.5 254 786.900390625 256.099609375 c 1
 780.299804688 203.299804688 773.700195312 150.400390625 767.099609375 97.599609375 c 0
 769.299804688 83.5 775.5 60.2001953125 794.599609375 45.900390625 c 0
 828.700195312 20.5 879.700195312 41.900390625 910.200195312 54.7001953125 c 0
 938.200195312 66.400390625 1033.5 112.200195312 1059.90039062 214.299804688 c 0
 1065.40039062 235.700195312 1076.20019531 277.5 1057.70019531 320 c 0
 1054.09960938 328.299804688 1041.70019531 354 967.400390625 403.700195312 c 0
 939.700195312 422.200195312 899.900390625 446.299804688 848.5 469.700195312 c 1
 876.099609375 490 907.400390625 516.400390625 938.799804688 550.099609375 c 0
 961.200195312 574.299804688 979.700195312 597.799804688 994.900390625 619.5 c 1
 1022.40039062 606 1062.29980469 584.299804688 1106.09960938 551.200195312 c 0
 1162 509 1193.79980469 485.099609375 1206.29980469 445.5 c 0
 1220.59960938 400.5 1201.70019531 361.099609375 1166.70019531 288.099609375 c 0
 1140.29980469 233.099609375 1099.29980469 149.099609375 1007.09960938 81.099609375 c 0
 986.099609375 65.7001953125 948.400390625 38.2998046875 891.5 19.5 c 0
 815.700195312 -5.599609375 749.200195312 -1.2001953125 712.099609375 4.099609375 c 1
 654.200195312 5.599609375 596.200195312 7 538.200195312 8.5 c 1
 536 15.099609375 533.799804688 21.7001953125 531.599609375 28.2998046875 c 0
 534.299804688 30.099609375 542.5 35.900390625 545.900390625 47 c 0
 547.700195312 52.900390625 547.400390625 58.099609375 547 61.2998046875 c 0
 554.299804688 173.299804688 561.700195312 285.200195312 569 397.099609375 c 1
 579 419.5 576.099609375 445.099609375 561.299804688 463.099609375 c 0
 544.299804688 483.799804688 519.099609375 485 515.099609375 485.099609375 c 0
 449.799804688 496.400390625 384.5 507.799804688 319.200195312 519.200195312 c 0
 314.799804688 520.599609375 293.200195312 526.700195312 273 514.799804688 c 0
 264.900390625 510 259.599609375 503.900390625 256.5 499.400390625 c 0
 253.200195312 358.5 249.900390625 217.599609375 246.599609375 76.7001953125 c 0
 247.799804688 64.2001953125 250.099609375 49.7001953125 254.299804688 33.7998046875 c 0
 257.200195312 22.7998046875 260.700195312 12.900390625 264.200195312 4.099609375 c 1
 186 5.599609375 107.900390625 7 29.7001953125 8.5 c 1
EndSplineSet
Validated: 33
EndChar

StartChar: uni041E
Encoding: 190 1054 16
Width: 658
VWidth: 0
Flags: HW
LayerCount: 2
Fore
SplineSet
569.700195312 640.799804688 m 1
 634.900390625 547.700195312 646.5 464.200195312 648.900390625 423.900390625 c 0
 661.5 223.400390625 508.5 72.2001953125 491.5 55.7998046875 c 0
 458.299804688 23.7998046875 422 -1.400390625 348.5 -75.7998046875 c 0
 310.900390625 -113.799804688 281.5 -146.700195312 262.099609375 -168.900390625 c 1
 236.099609375 -155 31.7998046875 -41.599609375 3.2998046875 175.900390625 c 0
 -14.900390625 314.5 46.900390625 429.200195312 73.5 478.599609375 c 0
 122.299804688 569.200195312 184.5 628.599609375 226.400390625 662.700195312 c 0
 252 678.400390625 281.700195312 699.5 312.200195312 727.400390625 c 0
 340 752.799804688 362 777.900390625 379.200195312 800 c 1
 393.400390625 768.599609375 411.200195312 750.799804688 424.400390625 740.599609375 c 0
 450.200195312 720.900390625 471.400390625 719.700195312 488.599609375 693.700195312 c 0
 490.400390625 691.200195312 499.400390625 677 502.599609375 656.299804688 c 0
 508.799804688 614.799804688 485.400390625 586.599609375 491.599609375 581.400390625 c 0
 496.099609375 577.900390625 514 587.400390625 569.700195312 640.799804688 c 1
474.299804688 79.2001953125 m 0
 480.299804688 90.900390625 569.700195312 278.400390625 461.799804688 452.200195312 c 0
 382.5 580 250.400390625 612.900390625 223.200195312 618.900390625 c 1
 216 612.599609375 78.400390625 485.799804688 114.099609375 322.5 c 0
 129.599609375 251.099609375 171.5 203.5 195.200195312 180.5 c 1
 139.799804688 120.799804688 115.099609375 65.7001953125 132.799804688 40.2001953125 c 0
 142 26.5 161.5 24.2001953125 187.200195312 21.5 c 0
 215.700195312 18.2001953125 264.599609375 17.7001953125 324.5 41.7001953125 c 0
 328 39 364 10.5 410.400390625 23 c 0
 455.299804688 35 472.599609375 74.7001953125 474.299804688 79.2001953125 c 0
EndSplineSet
Validated: 33
EndChar

StartChar: uni041F
Encoding: 191 1055 17
Width: 847
VWidth: 0
Flags: HW
LayerCount: 2
Fore
SplineSet
6.400390625 6.400390625 m 1
 17.400390625 31 32.2001953125 68.2998046875 43.2001953125 115.200195312 c 0
 65.400390625 209.5 56.2998046875 274.599609375 52.7998046875 393.599609375 c 0
 51.2001953125 446.900390625 50.400390625 523 54.400390625 616 c 0
 54.5 637.400390625 52.599609375 665 44.7998046875 696 c 0
 33.599609375 740.900390625 14.7001953125 774.799804688 0 796.799804688 c 1
 144.599609375 788.200195312 298.5 783.900390625 460.799804688 785.599609375 c 0
 590.299804688 787 714.200195312 792.099609375 832 800 c 1
 823.799804688 704.299804688 816.799804688 606.099609375 811.200195312 505.599609375 c 0
 803.700195312 371 799 240.299804688 796.799804688 113.599609375 c 1
 806.900390625 80 817.099609375 46.400390625 827.200195312 12.7998046875 c 1
 805.900390625 15.900390625 782.900390625 18.2001953125 758.400390625 19.2001953125 c 0
 686.400390625 22 623.799804688 12.2998046875 574.400390625 0 c 1
 581.099609375 44.099609375 586.200195312 94.599609375 587.200195312 150.400390625 c 0
 588.400390625 214 584.099609375 271 577.599609375 320 c 1
 588.700195312 327 605.700195312 336.900390625 627.200195312 347.200195312 c 0
 679.200195312 372 702 371.599609375 715.200195312 393.599609375 c 0
 726 411.700195312 725.599609375 436.799804688 715.200195312 454.400390625 c 0
 698.900390625 481.900390625 656.400390625 494 614.400390625 476.799804688 c 1
 612.299804688 547.200195312 610.099609375 617.599609375 608 688 c 0
 608.099609375 691 608.400390625 711.400390625 592 726.400390625 c 0
 578.400390625 738.799804688 562.200195312 739.200195312 558.400390625 739.200195312 c 0
 525 740.599609375 491.400390625 742.200195312 457.599609375 744 c 0
 411.299804688 746.400390625 365.400390625 749.099609375 320 752 c 0
 317.799804688 752.299804688 279.799804688 756.900390625 256 728 c 0
 237.5 705.599609375 235.400390625 672.799804688 251.200195312 646.400390625 c 1
 250.099609375 568.5 249.099609375 490.700195312 248 412.799804688 c 1
 270.400390625 377.700195312 268.700195312 357.299804688 264 345.599609375 c 0
 252 315.900390625 212 320.5 188.799804688 281.599609375 c 0
 185.5 276 168.599609375 246.299804688 180.799804688 224 c 0
 192.099609375 203.200195312 226.099609375 193.799804688 264 204.799804688 c 1
 258.599609375 180.700195312 253.900390625 150.900390625 252.799804688 116.799804688 c 0
 251.599609375 80.099609375 254.900390625 48.099609375 259.200195312 22.400390625 c 1
 222.099609375 25.7998046875 178.400390625 27.2001953125 129.599609375 24 c 0
 83 20.900390625 41.599609375 14.2001953125 6.400390625 6.400390625 c 1
EndSplineSet
Validated: 33
EndChar

StartChar: uni0420
Encoding: 192 1056 18
Width: 707
VWidth: 0
Flags: HW
LayerCount: 2
Fore
SplineSet
419.400390625 924.799804688 m 0
 604.5 805.599609375 714.700195312 630.599609375 683.5 484.799804688 c 0
 661.200195312 379.299804688 564.700195312 286.5 542 264.5 c 0
 487.099609375 211.700195312 419.400390625 169 358.200195312 130.700195312 c 0
 316.599609375 104.700195312 281.299804688 84.7001953125 256.700195312 71.400390625 c 1
 245 -1.7998046875 250.299804688 -60.599609375 256.700195312 -99 c 0
 272.099609375 -190 301.5 -210.400390625 310.200195312 -215.700195312 c 0
 328.799804688 -227.200195312 348.299804688 -229.299804688 361.900390625 -229.299804688 c 1
 363.900390625 -236.200195312 365.799804688 -243.299804688 367.599609375 -250.200195312 c 1
 346.700195312 -256.599609375 308.799804688 -270.799804688 272.099609375 -303.900390625 c 0
 237.700195312 -334.700195312 219.5 -368.200195312 210.799804688 -388 c 1
 214.700195312 -268.799804688 218.400390625 -149.400390625 222.299804688 -30.2001953125 c 0
 225.700195312 -18.7001953125 235.400390625 19.599609375 214.700195312 52 c 0
 204.599609375 67.7001953125 190.599609375 77.2998046875 170.599609375 86.5 c 0
 113 113.200195312 51.2001953125 115.700195312 8 113.400390625 c 1
 34.599609375 136.599609375 68.900390625 162.5 111.299804688 186 c 0
 137 200.299804688 161.599609375 211.5 183.900390625 220.5 c 0
 190.799804688 222.400390625 201.400390625 226.5 210.799804688 235.700195312 c 0
 234.900390625 259.599609375 228.700195312 295.200195312 228 298.900390625 c 0
 227.299804688 395.400390625 226.700195312 491.599609375 226.200195312 588.099609375 c 0
 225.5 605.799804688 222.099609375 636.099609375 205.099609375 668.5 c 0
 192.400390625 692.599609375 175.700195312 724.5 141.900390625 733.5 c 0
 103.299804688 743.599609375 67.7001953125 717 53 703.900390625 c 1
 123.5 772.299804688 194 841 264.400390625 909.700195312 c 0
 270.099609375 910.900390625 297.700195312 917.599609375 314.200195312 944.200195312 c 0
 325 961.400390625 325.900390625 978.599609375 325.700195312 986.200195312 c 1
 334 986.900390625 342.200195312 987.5 350.5 988 c 1
 351.5 982.200195312 354.900390625 961.099609375 373.5 944.099609375 c 0
 392.299804688 926.900390625 413.700195312 925.299804688 419.400390625 924.799804688 c 0
532.400390625 287.5 m 0
 572.5 357.299804688 536.5 471.200195312 453.900390625 574.5 c 1
 484.700195312 567.099609375 515.200195312 575.200195312 530.599609375 595.599609375 c 0
 556.099609375 630.099609375 523.700195312 680.400390625 519.099609375 687.5 c 0
 511.900390625 698.299804688 502.5 713 484.599609375 720.099609375 c 0
 459.299804688 729.799804688 441.599609375 714.900390625 404.200195312 710.5 c 0
 386.799804688 708.5 361.5 708.5 329.599609375 718.099609375 c 1
 305.700195312 750.299804688 271.900390625 756.299804688 258.599609375 745 c 0
 248.700195312 736.5 248 716.5 255 697.200195312 c 1
 255 297.099609375 l 2
 252.900390625 280.599609375 246.200195312 214 272.200195312 174.700195312 c 0
 276.599609375 168.099609375 283.700195312 157.5 297 153.599609375 c 0
 315.799804688 148.299804688 333.299804688 160.200195312 337.200195312 163.200195312 c 0
 370.5 169.599609375 428.599609375 185.900390625 482.599609375 232.099609375 c 0
 491.099609375 239.299804688 517.700195312 262 532.400390625 287.5 c 0
EndSplineSet
Validated: 33
EndChar

StartChar: uni0421
Encoding: 193 1057 19
Width: 583
VWidth: 0
Flags: HW
LayerCount: 2
Fore
SplineSet
576.400390625 146.299804688 m 1
 541.599609375 125.900390625 494.700195312 93.2001953125 449.599609375 42.599609375 c 0
 415.700195312 4.5 392.400390625 -32.7998046875 376.599609375 -63.099609375 c 1
 347.200195312 -67.400390625 267.5 -74.900390625 184.5 -30.400390625 c 0
 132.299804688 -2.5 99.900390625 34.7001953125 82.7001953125 58 c 1
 111.799804688 92.7998046875 139 125.700195312 167.200195312 159.799804688 c 0
 178.400390625 173.400390625 191.599609375 189.799804688 186.400390625 204 c 0
 182.299804688 215.200195312 168 221.700195312 155.700195312 221.299804688 c 0
 139.799804688 220.700195312 125.400390625 208.400390625 121.099609375 190.599609375 c 1
 109 192.299804688 92.900390625 192.5 84.599609375 182.900390625 c 0
 75.7001953125 172.700195312 82.599609375 159.400390625 75 144.5 c 0
 70.599609375 135.900390625 60.7001953125 125.599609375 36.599609375 119.5 c 1
 20 148.5 -3.099609375 198.5 -3.7998046875 261.599609375 c 0
 -4.7001953125 346.599609375 35.5 406.900390625 99.900390625 503.700195312 c 0
 128.799804688 547 174.299804688 614.200195312 255.5 682.400390625 c 0
 317.099609375 733.900390625 376.299804688 767.099609375 420.799804688 788 c 1
 440.5 790.900390625 459.5 782.5 468.799804688 766.900390625 c 0
 478.5 750.700195312 473.599609375 733.5 472.599609375 730.400390625 c 0
 460.5 722.900390625 429 701.299804688 411.099609375 659.299804688 c 0
 388.799804688 606.900390625 403.299804688 559.700195312 407.299804688 547.900390625 c 0
 405.400390625 542.799804688 403.5 537.700195312 401.5 532.5 c 1
 386.400390625 550.5 359 578.599609375 317 599.700195312 c 0
 283.599609375 616.5 259.900390625 628.400390625 234.400390625 622.799804688 c 0
 160.200195312 606.400390625 139.599609375 457.599609375 136.400390625 430.700195312 c 0
 132.900390625 400.900390625 128.299804688 362.799804688 140.200195312 315.400390625 c 0
 159.700195312 237.700195312 217.900390625 156.900390625 311.200195312 119.400390625 c 0
 447.400390625 64.7001953125 565.799804688 139.400390625 576.400390625 146.299804688 c 1
EndSplineSet
Validated: 37
EndChar

StartChar: uni0422
Encoding: 194 1058 20
Width: 901
VWidth: 0
Flags: HW
LayerCount: 2
Fore
SplineSet
112.099609375 411 m 1
 97 472.200195312 79.5 536.099609375 59.2998046875 602.200195312 c 0
 40.2998046875 664.599609375 20.400390625 724 0 780.200195312 c 1
 126.700195312 778 257.200195312 777.900390625 391.200195312 780.200195312 c 0
 565 783.200195312 732.900390625 790.099609375 894.5 800 c 1
 881.700195312 760.400390625 869.599609375 717.099609375 859.400390625 670.299804688 c 0
 840.900390625 586.299804688 832.099609375 509.099609375 828.599609375 441.700195312 c 1
 818.599609375 480.700195312 803.5 526.599609375 780.200195312 575.799804688 c 0
 763.900390625 610.299804688 746.5 640.299804688 729.700195312 665.900390625 c 0
 729.5 673.200195312 728.099609375 704.400390625 703.299804688 729.599609375 c 0
 671 762.5 626.799804688 756.700195312 622 756 c 0
 608.200195312 756.700195312 581.400390625 756 553.799804688 740.799804688 c 0
 542.5 734.5 533.900390625 727.400390625 527.400390625 721 c 1
 528.900390625 682.200195312 530.299804688 643.299804688 531.799804688 604.5 c 0
 530.599609375 523.5 528.799804688 458.200195312 527.400390625 415.5 c 0
 522.200195312 250.5 516.299804688 179.299804688 540.599609375 79.2001953125 c 0
 548.900390625 45.2001953125 558.200195312 17.900390625 564.799804688 0.099609375 c 1
 528.5 8.2998046875 482.299804688 15.2998046875 428.5 15.5 c 0
 382.599609375 15.599609375 342.5 10.7001953125 309.799804688 4.5 c 1
 320.099609375 71.400390625 328.5 143.400390625 334 219.900390625 c 0
 342 332 342.5 435.900390625 338.400390625 529.799804688 c 1
 342.5 526.400390625 360.099609375 512.299804688 384.599609375 514.400390625 c 0
 396.599609375 515.400390625 405.700195312 520 411 523.200195312 c 0
 459.799804688 580.5 463 610 455 626.5 c 0
 440.799804688 655.599609375 390.799804688 644.700195312 362.700195312 688 c 0
 347.400390625 711.400390625 353 728.599609375 334.099609375 740.700195312 c 0
 320.599609375 749.299804688 305.299804688 747.900390625 274.799804688 745.099609375 c 0
 248 742.599609375 231.400390625 741.099609375 213.299804688 729.700195312 c 0
 193.5 717.200195312 183.099609375 700 178.099609375 690.099609375 c 0
 167.299804688 656.099609375 156.900390625 620.200195312 147.299804688 582.400390625 c 0
 131.900390625 522 120.5 464.599609375 112.099609375 411 c 1
EndSplineSet
Validated: 33
EndChar

StartChar: uni040B
Encoding: 171 1035 21
Width: 1000
VWidth: 0
Flags: HW
LayerCount: 2
Fore
SplineSet
211.799804688 32.400390625 m 1
 218.599609375 50.5 226.299804688 77.400390625 227.700195312 110.400390625 c 0
 228.900390625 138.299804688 225.400390625 161.799804688 221.299804688 178.900390625 c 1
 246.299804688 174.200195312 257.599609375 180.799804688 262.799804688 185.299804688 c 0
 272.099609375 193.5 269.299804688 202 280.299804688 233.099609375 c 0
 288.700195312 257 293.299804688 260.200195312 291.400390625 268.099609375 c 0
 290 274.099609375 283.599609375 289.400390625 238.799804688 298.299804688 c 1
 250.200195312 335.700195312 261.299804688 384.799804688 264.299804688 443.200195312 c 0
 268.200195312 521.599609375 255.900390625 586.5 243.599609375 631.200195312 c 1
 251.5 634.900390625 259.5 638.700195312 267.5 642.299804688 c 1
 266.400390625 612.5 284.799804688 587.400390625 309 581.799804688 c 0
 324.900390625 578.099609375 343.700195312 582.599609375 355.200195312 594.5 c 0
 365.799804688 605.5 365.400390625 617.599609375 369.599609375 650.200195312 c 0
 371.599609375 665.400390625 374.900390625 687.900390625 380.700195312 715.5 c 1
 375.900390625 736.400390625 358.700195312 752.299804688 337.700195312 755.299804688 c 0
 317.599609375 758.099609375 297.599609375 748.799804688 286.799804688 731.400390625 c 1
 277.799804688 731.200195312 264.799804688 732.5 254.900390625 741 c 0
 243.599609375 750.799804688 246.5 761.299804688 237.400390625 771.200195312 c 0
 223.599609375 786.299804688 193 788 170.5 776 c 0
 138.900390625 759 137.099609375 721.799804688 137.099609375 720.299804688 c 0
 114.799804688 667.700195312 92.5 615.200195312 70.2001953125 562.599609375 c 1
 70.599609375 596.700195312 67.2001953125 645.599609375 49.5 701.200195312 c 0
 35.400390625 745.900390625 16.2998046875 781.200195312 0.099609375 806.5 c 1
 84.5 804.900390625 169 803.400390625 253.400390625 801.700195312 c 1
 255.700195312 817.099609375 257.299804688 835.299804688 256.599609375 855.900390625 c 0
 255.400390625 891.299804688 248 920.599609375 240.700195312 942 c 1
 315.599609375 941.400390625 390.400390625 940.900390625 465.299804688 940.400390625 c 1
 461.200195312 922.400390625 457.599609375 901.599609375 455.700195312 878.299804688 c 0
 453.5 851.299804688 454.099609375 827.200195312 455.700195312 806.599609375 c 1
 587.799804688 801.299804688 720 795.900390625 852.200195312 790.700195312 c 1
 830 760.5 806.200195312 723.799804688 783.700195312 680.799804688 c 0
 764 643 749 607.5 737.400390625 575.700195312 c 1
 739 595.700195312 744.299804688 687.5 681.700195312 742.900390625 c 0
 673.099609375 750.5 662.099609375 758.400390625 648.299804688 765.200195312 c 1
 583.5 767.900390625 518.799804688 770.5 454 773.099609375 c 1
 451.900390625 673.299804688 449.799804688 573.400390625 447.599609375 473.700195312 c 0
 449.200195312 471 453.700195312 464.799804688 462 461 c 0
 468.700195312 457.799804688 474.799804688 457.700195312 477.900390625 457.799804688 c 0
 544.799804688 471.599609375 611.700195312 485.400390625 678.599609375 499.299804688 c 1
 744.5 531.299804688 821 524.5 874.599609375 481.799804688 c 0
 933.200195312 435 939.099609375 365.099609375 939.900390625 352.799804688 c 0
 938.799804688 281.099609375 937.799804688 209.400390625 936.700195312 137.799804688 c 1
 906.700195312 125.400390625 882 117.400390625 865 112.299804688 c 0
 833.700195312 103 814.799804688 99.599609375 802.900390625 82.099609375 c 0
 802.099609375 80.900390625 789.700195312 62 796.5 51.900390625 c 0
 799.200195312 47.7998046875 807.599609375 41.2001953125 868.200195312 55.099609375 c 0
 887.900390625 59.7001953125 916 67 949.5 79 c 1
 953.799804688 66.599609375 960.400390625 51.7998046875 970.200195312 36 c 0
 977.099609375 25 984.200195312 15.7001953125 990.900390625 8.099609375 c 1
 904.799804688 8.099609375 818.900390625 8.099609375 732.799804688 8.099609375 c 1
 736 39.7001953125 739.200195312 71.2998046875 742.400390625 102.900390625 c 0
 746.700195312 110.599609375 757.599609375 132.299804688 753.5 160.200195312 c 0
 751.299804688 175.299804688 745.599609375 186.599609375 741.200195312 193.599609375 c 1
 741.599609375 224.900390625 741.900390625 256.299804688 742.299804688 287.599609375 c 0
 733 371.799804688 678.099609375 436.700195312 610.099609375 450 c 0
 567.700195312 458.299804688 519 446.700195312 485.799804688 416.599609375 c 0
 437 372.099609375 437.900390625 301.799804688 441.200195312 179.299804688 c 0
 443.099609375 111.099609375 450.900390625 55.900390625 457.099609375 20 c 1
 375.400390625 24 293.599609375 28.2001953125 211.799804688 32.400390625 c 1
EndSplineSet
Validated: 33
EndChar

StartChar: uni0423
Encoding: 195 1059 22
Width: 828
VWidth: 0
Flags: HW
LayerCount: 2
Fore
SplineSet
57.2001953125 693.099609375 m 1
 53.2998046875 705.400390625 47.2001953125 720.599609375 37.599609375 736.799804688 c 0
 25.2001953125 757.799804688 11.099609375 773.099609375 0 783.400390625 c 1
 51.599609375 780.700195312 108.700195312 780.200195312 170.200195312 783.400390625 c 0
 225 786.299804688 275.900390625 791.700195312 322.299804688 798.5 c 1
 317.299804688 782.700195312 312 760 311.799804688 732.200195312 c 0
 311.5 698.400390625 318.900390625 672.799804688 322.299804688 661.400390625 c 0
 337 612.5 391.900390625 441.5 469.900390625 209.599609375 c 1
 482 205.099609375 494.799804688 206.700195312 503 214.099609375 c 0
 507.400390625 218.099609375 509.5 222.799804688 510.5 226.099609375 c 0
 521 315 531.599609375 403.799804688 542.099609375 492.700195312 c 1
 555.099609375 561.200195312 576.400390625 614.099609375 593.299804688 649.299804688 c 0
 621.400390625 707.900390625 642.099609375 751.099609375 689.700195312 783.299804688 c 0
 737.5 815.700195312 788.200195312 820.599609375 816.200195312 821 c 1
 805.599609375 781.700195312 795.400390625 726.299804688 798.099609375 659.799804688 c 0
 800 613.5 807.700195312 573.700195312 816.200195312 542.299804688 c 1
 812.700195312 541.799804688 809.200195312 541.299804688 805.700195312 540.799804688 c 1
 806.099609375 552.700195312 805.900390625 588.200195312 781.599609375 610.099609375 c 0
 745.099609375 643 682.5 620.200195312 656.599609375 605.599609375 c 0
 594.700195312 570.599609375 564.900390625 485.200195312 573.799804688 388.700195312 c 1
 571.799804688 389.400390625 561.900390625 392.400390625 551.200195312 387.200195312 c 0
 540.700195312 382.099609375 536.900390625 372.599609375 536.099609375 370.599609375 c 0
 541.599609375 347 547.099609375 323.400390625 552.700195312 299.799804688 c 1
 537 218.599609375 524.400390625 128.400390625 518.099609375 30.2001953125 c 0
 515.099609375 -16.2998046875 513.700195312 -61.099609375 513.599609375 -103.799804688 c 0
 511.5 -111.299804688 499.200195312 -157.400390625 527.200195312 -203.200195312 c 0
 554.900390625 -248.5 600.799804688 -258.799804688 608.5 -260.400390625 c 1
 586.799804688 -273.900390625 561.799804688 -292.099609375 536.200195312 -316.099609375 c 0
 501.700195312 -348.599609375 477.400390625 -381.5 460.900390625 -408 c 1
 468.299804688 -363.900390625 474.5 -317.099609375 479 -267.900390625 c 0
 489.5 -153.400390625 488.599609375 -48.5 482 43.900390625 c 1
 467.400390625 48.7001953125 449.099609375 53 427.799804688 54.400390625 c 0
 377.900390625 57.7998046875 338.200195312 43.400390625 316.299804688 33.2998046875 c 1
 266.099609375 201.5 215.900390625 369.700195312 165.700195312 537.900390625 c 1
 170.900390625 548.799804688 202.400390625 617.700195312 168.700195312 676.5 c 0
 151.5 706.5 111.299804688 744.099609375 82.900390625 732.200195312 c 0
 66.400390625 725.400390625 59.7998046875 704.5 57.2001953125 693.099609375 c 1
EndSplineSet
Validated: 33
EndChar

StartChar: uni0424
Encoding: 196 1060 23
Width: 835
VWidth: 0
Flags: HW
LayerCount: 2
Fore
SplineSet
794 564.700195312 m 0
 851.900390625 442.900390625 799.400390625 324 794.599609375 314.5 c 0
 787.099609375 299.5 778.700195312 286.400390625 769.599609375 275.200195312 c 0
 737.299804688 235 679.400390625 204.200195312 679.400390625 204.200195312 c 1
 640.099609375 183.599609375 582.200195312 153.299804688 502.299804688 145.099609375 c 0
 468.200195312 141.599609375 431.700195312 142.299804688 415.599609375 117.299804688 c 0
 408.299804688 106.599609375 408.099609375 95.400390625 408.099609375 83.7001953125 c 0
 408.099609375 7.7998046875 408.099609375 -30 416.299804688 -81.900390625 c 0
 427.299804688 -153.099609375 433.599609375 -163.700195312 443.900390625 -170.900390625 c 0
 467.5 -187.5 503.700195312 -181.400390625 517.700195312 -179.099609375 c 0
 537.799804688 -175.599609375 553.200195312 -168.799804688 563 -163.700195312 c 0
 569.299804688 -158.400390625 576.5 -155.599609375 580.5 -157.900390625 c 0
 585.200195312 -160.900390625 586.099609375 -172.900390625 578.200195312 -185.700195312 c 0
 533.400390625 -232.400390625 496.700195312 -264.200195312 471 -285 c 0
 461 -293 444.400390625 -306 424.299804688 -326.599609375 c 0
 400.200195312 -351.099609375 383.099609375 -374.200195312 372.400390625 -390.099609375 c 1
 367.700195312 -409.200195312 364 -411.299804688 362.099609375 -411.099609375 c 0
 358.900390625 -411.099609375 355.799804688 -403.799804688 355.599609375 -398 c 0
 355.299804688 -391.200195312 358.799804688 -386.299804688 360 -384.900390625 c 0
 373.799804688 -310.599609375 380.099609375 -249.400390625 383.400390625 -206.599609375 c 0
 386.900390625 -162 387.799804688 -119.700195312 389.900390625 -35.099609375 c 0
 391.299804688 19.400390625 392 64.2001953125 392.200195312 94.599609375 c 0
 392.200195312 101.099609375 391.299804688 110 385.200195312 116.799804688 c 0
 373.700195312 129.599609375 351.799804688 125.200195312 332.599609375 124.5 c 0
 303.400390625 123.599609375 274.200195312 125.700195312 245 124.5 c 0
 165.099609375 121.400390625 96.599609375 170.700195312 93.099609375 173.299804688 c 0
 16 230.299804688 2.900390625 323.299804688 1.7001953125 332.900390625 c 0
 -17.900390625 487.799804688 134.200195312 596 153.700195312 609.400390625 c 0
 230.799804688 662.599609375 310.200195312 672 350.200195312 673.599609375 c 1
 373.099609375 669.400390625 394.599609375 679.700195312 402.799804688 697 c 0
 410.299804688 712.799804688 404.200195312 728.700195312 402.799804688 732 c 0
 399.799804688 748.099609375 392.299804688 786 385.299804688 821.700195312 c 0
 378.5 856.700195312 374.700195312 874.5 361.900390625 885.900390625 c 0
 343.700195312 902.200195312 318.5 901.799804688 303.5 901.299804688 c 0
 271.299804688 900.799804688 247.400390625 887.299804688 236 879.799804688 c 0
 229.700195312 873.299804688 221.299804688 873.099609375 218.5 876.099609375 c 0
 215.400390625 879.099609375 216.400390625 887.799804688 223.599609375 893.599609375 c 0
 254.900390625 913.299804688 281.700195312 932.200195312 303.700195312 948.299804688 c 0
 330.099609375 968 346.900390625 980.099609375 367.900390625 998.799804688 c 0
 414.299804688 1039.70019531 423.900390625 1060 432.799804688 1056.5 c 0
 448.400390625 1050.40039062 431.799804688 987.099609375 426 899.5 c 0
 421.799804688 834.799804688 424.900390625 780.799804688 428.599609375 743.900390625 c 0
 426.5 729.099609375 426 707.900390625 438.799804688 693.700195312 c 0
 455.700195312 674.700195312 487 678 505.900390625 679.400390625 c 0
 540.700195312 682.200195312 665.200195312 692 732.299804688 649 c 0
 763.400390625 629.200195312 776.700195312 601.099609375 794 564.700195312 c 0
390.5 170.799804688 m 0
 394.700195312 322.400390625 398.900390625 474 402.900390625 625.599609375 c 0
 402.900390625 627.700195312 402.400390625 633.099609375 398.700195312 638 c 0
 392.200195312 646.400390625 381.700195312 646.200195312 380.5 646.200195312 c 0
 357.299804688 646.700195312 316 644.099609375 274.400390625 620.5 c 0
 191.5 573.299804688 174.200195312 479.799804688 168.599609375 450.400390625 c 0
 149.700195312 349 193.599609375 268.400390625 210.900390625 240.799804688 c 0
 221.400390625 224.299804688 231.900390625 211.599609375 239.400390625 203 c 1
 249.599609375 198.799804688 260.400390625 194.099609375 271.599609375 188.299804688 c 0
 277.700195312 185.299804688 283.5 182 289.099609375 179 c 0
 291.700195312 175 295 170.400390625 299.400390625 165.700195312 c 0
 304.799804688 160.099609375 310.200195312 155.599609375 314.599609375 152.599609375 c 0
 321.400390625 150.799804688 330 148.900390625 340.299804688 148.200195312 c 0
 352.400390625 147.5 363 148.900390625 370.900390625 150.5 c 0
 372.099609375 150.5 379.599609375 150 385.400390625 156.299804688 c 0
 391.200195312 162.400390625 390.700195312 169.599609375 390.5 170.799804688 c 0
736.5 342.5 m 0
 747 365.400390625 733.700195312 390.799804688 731.599609375 395.099609375 c 0
 733.200195312 397.900390625 736 403.5 735.799804688 410.299804688 c 0
 735.5 424.799804688 722.900390625 437.400390625 708.900390625 440.200195312 c 0
 698.099609375 442.5 689 438.599609375 685.5 436.700195312 c 0
 671.299804688 422.700195312 657.299804688 408.900390625 643 395.099609375 c 0
 638.5 387.099609375 631.5 383.200195312 627.799804688 384.799804688 c 0
 623.799804688 386.400390625 621.5 395.799804688 626.400390625 405.799804688 c 0
 630.099609375 427.099609375 638.799804688 493.200195312 600.700195312 557.700195312 c 0
 567.299804688 614.400390625 514.299804688 641.5 493.5 646.200195312 c 0
 487.400390625 647.400390625 475.5 648.799804688 464.299804688 649 c 0
 443.299804688 649.700195312 438.400390625 646.700195312 436.5 645.5 c 0
 428.099609375 639.400390625 426.200195312 628.400390625 425.5 622.799804688 c 0
 419.900390625 478.700195312 414.299804688 334.5 408.700195312 190.599609375 c 0
 408 175.900390625 413.599609375 163.299804688 423.400390625 158.400390625 c 0
 425.5 157.5 429 156.099609375 433.700195312 156.299804688 c 0
 462 158.099609375 506.599609375 165.400390625 550.5 193.400390625 c 0
 569.900390625 206 594.599609375 222.099609375 609.599609375 253.900390625 c 0
 618.299804688 272.900390625 620.599609375 290.200195312 621.299804688 301.599609375 c 0
 621 302.599609375 620.799804688 309.099609375 625.700195312 314 c 0
 629.900390625 318.200195312 636.900390625 319.400390625 643 316.799804688 c 0
 683.900390625 300.400390625 724.400390625 315.599609375 736.5 342.5 c 0
EndSplineSet
Validated: 33
EndChar

StartChar: uni0425
Encoding: 197 1061 24
Width: 883
VWidth: 0
Flags: HW
LayerCount: 2
Fore
SplineSet
850.400390625 792.200195312 m 0
 854.099609375 784 854.599609375 773.299804688 850.099609375 765 c 0
 848.099609375 761.299804688 847.400390625 762.5 844 757.700195312 c 0
 836.5 746.799804688 838.400390625 740.200195312 832.099609375 729.099609375 c 0
 830.599609375 726.400390625 828 722.5 823.599609375 718.400390625 c 0
 823.099609375 717.5 820.900390625 713.299804688 816.099609375 711.400390625 c 0
 813 710.200195312 810.099609375 710.5 808.599609375 710.700195312 c 1
 809.299804688 709.400390625 810.5 706.700195312 810.099609375 703.200195312 c 0
 809.799804688 700 808 695.200195312 805.299804688 694.799804688 c 0
 802.299804688 694.400390625 800.299804688 699.5 797.5 698.799804688 c 0
 796.099609375 698.5 795.299804688 696.900390625 794.799804688 695.700195312 c 0
 792.900390625 689.599609375 806.900390625 680.700195312 807.900390625 680.200195312 c 0
 806.700195312 672.5 805.200195312 665 804 657.200195312 c 0
 803.299804688 656.900390625 795.5 653.5 793.599609375 644.799804688 c 0
 792.200195312 638.5 794.400390625 632 799.200195312 627.599609375 c 1
 796.299804688 617.200195312 793.400390625 607 790.5 596.599609375 c 0
 792.400390625 595.400390625 795.299804688 593 798 589.599609375 c 0
 800 586.599609375 801.200195312 583.700195312 801.900390625 581.799804688 c 0
 804.799804688 576 807.700195312 570.400390625 810.599609375 564.599609375 c 0
 810.599609375 561.400390625 809.099609375 558.299804688 806.700195312 557.299804688 c 0
 803.099609375 555.400390625 797.299804688 557.799804688 795.099609375 563.599609375 c 0
 793.599609375 568 780.799804688 607 745.400390625 618.400390625 c 0
 708.599609375 630.200195312 661.599609375 608.200195312 641.5 561.900390625 c 1
 616.099609375 535.299804688 590.900390625 508.599609375 565.700195312 482.200195312 c 0
 563.5 479.700195312 543.099609375 457 550.400390625 432.5 c 0
 551.599609375 428.799804688 553.599609375 424.200195312 557.700195312 419.400390625 c 0
 572 396.200195312 586.599609375 373.200195312 601.099609375 349.900390625 c 1
 612.200195312 348 618.299804688 340.200195312 617.299804688 335.599609375 c 0
 616.299804688 332 610.299804688 328.799804688 603 328.599609375 c 0
 573.200195312 324.900390625 542.900390625 321.5 512.099609375 318.400390625 c 0
 477.900390625 315 444.299804688 312.099609375 411.299804688 309.400390625 c 1
 377.700195312 260 341.299804688 209.400390625 302.299804688 158 c 0
 284.400390625 134.700195312 256.5 98.599609375 221.599609375 56.2001953125 c 0
 176.799804688 1.900390625 117.700195312 -66.400390625 43.7998046875 -143 c 1
 37 -134.299804688 -12.7001953125 -67.599609375 12.5 -13.599609375 c 0
 14.900390625 -8 18.5 -2.2001953125 23.599609375 3.400390625 c 1
 16.400390625 35.2001953125 9.2998046875 66.900390625 2.2998046875 98.400390625 c 0
 -0.7998046875 109.799804688 -0.599609375 118.5 2.2998046875 119.700195312 c 0
 5.2998046875 120.700195312 11.2998046875 114.799804688 16.400390625 105.400390625 c 0
 27.5 86 46.7001953125 74.900390625 54.900390625 70.2998046875 c 0
 88.7998046875 49.7001953125 140.200195312 75.900390625 153 82.400390625 c 0
 170.400390625 91.099609375 182.099609375 101 190.799804688 108.799804688 c 0
 234.099609375 146.799804688 267.299804688 176.099609375 307.799804688 228 c 0
 329.299804688 255.900390625 356 293.900390625 381.900390625 342.599609375 c 0
 383.099609375 344.099609375 392.099609375 355.5 388.700195312 370 c 0
 386.5 379.200195312 380.5 384.799804688 378.299804688 386.700195312 c 0
 330.299804688 464.5 277.700195312 544 220.299804688 624.400390625 c 0
 203.599609375 647.900390625 186.900390625 670.700195312 169.900390625 693.200195312 c 0
 168.900390625 696.099609375 166 701.900390625 159.700195312 707 c 0
 152.200195312 712.599609375 144.400390625 713.299804688 141.5 713.299804688 c 0
 115.799804688 720.599609375 99.7998046875 731.700195312 101 739.5 c 0
 102.400390625 749.200195312 130.099609375 752.599609375 132 752.799804688 c 0
 166.700195312 749.200195312 207.099609375 747.5 251.700195312 750.400390625 c 0
 274.900390625 752.099609375 297 754.799804688 317.099609375 758.200195312 c 0
 333.099609375 759.700195312 348.799804688 761.099609375 364.799804688 762.599609375 c 1
 368.400390625 758.400390625 372.299804688 754.299804688 376.200195312 750.200195312 c 0
 384.400390625 723.799804688 394.799804688 694.900390625 408.400390625 664.900390625 c 0
 429.5 617.200195312 453 576.700195312 475.299804688 543.5 c 0
 477 537.599609375 481.099609375 526.700195312 491.299804688 516.799804688 c 0
 496.799804688 511.400390625 505.799804688 502.5 518.400390625 502 c 0
 532.200195312 501.599609375 545.599609375 511 553.799804688 525.299804688 c 0
 587.200195312 570.599609375 620.900390625 615.900390625 654.599609375 661.200195312 c 0
 677.900390625 689.099609375 701.099609375 716.900390625 724.400390625 744.799804688 c 0
 729 746.200195312 736.799804688 748.200195312 746 746.700195312 c 0
 749.200195312 746.200195312 752.099609375 745.299804688 754.5 744.299804688 c 1
 754.299804688 748.400390625 754.5 753.299804688 755.5 759.099609375 c 0
 756.900390625 766.099609375 759.400390625 771.400390625 761.299804688 775.299804688 c 0
 765.400390625 779.900390625 772.900390625 787.200195312 784.299804688 792.5 c 0
 797.200195312 798.5 808.799804688 799.200195312 815.099609375 799 c 0
 825.200195312 799.5 835.400390625 799.799804688 845.599609375 800 c 0
 847 798.5 848.900390625 795.799804688 850.400390625 792.200195312 c 0
725.700195312 645.700195312 m 0
 727.400390625 645.900390625 729 646.599609375 729.400390625 647.599609375 c 0
 729.599609375 649 727.700195312 651 724.299804688 651.700195312 c 0
 722.299804688 653.200195312 720.400390625 653.400390625 719.900390625 652.700195312 c 0
 719.5 652 719.900390625 650.599609375 721.400390625 649.099609375 c 0
 721.099609375 647.599609375 721.099609375 646 720.900390625 644.5 c 0
 721.599609375 643.5 722.799804688 643 723.799804688 643.5 c 0
 725 643.799804688 725.700195312 644.5 725.700195312 645.700195312 c 0
759.799804688 654.599609375 m 0
 764.900390625 659.200195312 763.900390625 666.5 764 667.099609375 c 0
 764.400390625 670.5 764 673.700195312 762.5 674.400390625 c 0
 760.799804688 675.099609375 757.400390625 672.400390625 754.700195312 667.599609375 c 0
 754.700195312 662.299804688 755 657.200195312 755.200195312 651.900390625 c 1
 756.400390625 652.400390625 758.099609375 653.099609375 759.799804688 654.599609375 c 0
770.200195312 669.599609375 m 1
 776.299804688 665.5 782.400390625 661.700195312 788.299804688 657.799804688 c 1
 788.299804688 662.900390625 787.799804688 668.700195312 787.099609375 674.5 c 0
 786.400390625 681.299804688 785.200195312 687.299804688 784 692.900390625 c 1
 783.799804688 691.900390625 779.900390625 680.299804688 776 680.799804688 c 0
 775.5 680.799804688 775 681.299804688 774.299804688 682 c 1
 772.900390625 677.799804688 771.700195312 673.700195312 770.200195312 669.599609375 c 1
795.400390625 704.099609375 m 0
 796.400390625 704.799804688 797.599609375 706 797.700195312 707.799804688 c 0
 797.700195312 709.799804688 796 710.700195312 795.299804688 713.400390625 c 0
 794.799804688 714.799804688 794.299804688 716.799804688 794.799804688 719.200195312 c 0
 790.200195312 722.799804688 785.599609375 726.200195312 781 729.599609375 c 0
 777.200195312 732.5 773.5 735.400390625 769.900390625 738.099609375 c 0
 765 737.799804688 760.900390625 734.700195312 760.200195312 730.799804688 c 0
 759.5 727.700195312 761.200195312 725 761.700195312 724.299804688 c 0
 767.299804688 720.099609375 773.099609375 716 778.900390625 711.900390625 c 0
 779.599609375 712.400390625 783.5 714.299804688 788.099609375 712.599609375 c 0
 793.900390625 710.400390625 795.200195312 704.299804688 795.400390625 704.099609375 c 0
516.299804688 246.5 m 0
 532.900390625 246.200195312 542.799804688 250.900390625 548.900390625 255.599609375 c 0
 559.799804688 264 563.700195312 276.400390625 578.099609375 279.799804688 c 0
 579.099609375 280.099609375 581.799804688 280.200195312 587.200195312 280.599609375 c 0
 613.900390625 282.299804688 618.599609375 281.099609375 626.599609375 283.299804688 c 0
 632.400390625 284.900390625 640.400390625 288.400390625 648.900390625 296.900390625 c 0
 651.099609375 297.400390625 657.599609375 298.400390625 664.400390625 295 c 0
 674.599609375 290 677 279.400390625 677.299804688 278 c 0
 712 226.299804688 733.599609375 194 746.599609375 174.599609375 c 0
 773.700195312 134.099609375 786.200195312 114.299804688 809.799804688 90.599609375 c 0
 832.599609375 67.7001953125 854.599609375 52 870 42.099609375 c 0
 870.799804688 42.2001953125 874.099609375 42.5 876.799804688 40.2001953125 c 0
 879.700195312 37.7998046875 880.299804688 33.7001953125 879.5 31.099609375 c 0
 877.900390625 26.099609375 869.700195312 22.7001953125 859.400390625 25 c 0
 832.5 31.099609375 811 31.599609375 796.900390625 31.099609375 c 0
 762.799804688 29.900390625 667.599609375 19 648.099609375 18.599609375 c 0
 645.900390625 18.599609375 641.299804688 18.599609375 636.700195312 21.2998046875 c 0
 629.700195312 25.2998046875 627.599609375 32.2998046875 627.200195312 33.7998046875 c 0
 617.5 49.099609375 607.900390625 64.5 598.200195312 79.7998046875 c 0
 594.799804688 89.5 594.200195312 97.2998046875 594.200195312 102.700195312 c 0
 594.299804688 107.799804688 595 112 592.299804688 114.799804688 c 0
 589.299804688 118 583.900390625 117.700195312 579.799804688 117.099609375 c 0
 578.799804688 119.700195312 577 123.5 573.700195312 127.299804688 c 0
 569.799804688 131.900390625 565.599609375 134.5 562.900390625 135.799804688 c 0
 562.799804688 138.700195312 562.200195312 144.200195312 558.900390625 150 c 0
 554.799804688 157.400390625 548.700195312 161 546.099609375 162.400390625 c 0
 545.299804688 168.299804688 543 179 535.799804688 190.099609375 c 0
 529.200195312 200.200195312 521.299804688 206.299804688 516.5 209.5 c 0
 514 213.5 511.5 217.5 508.900390625 221.5 c 0
 506.700195312 225.400390625 500.900390625 236.200195312 505.5 241.900390625 c 0
 509.200195312 246.400390625 515.200195312 246.5 516.299804688 246.5 c 0
EndSplineSet
Validated: 33
EndChar

StartChar: uni0426
Encoding: 198 1062 25
Width: 946
VWidth: 0
Flags: HW
LayerCount: 2
Fore
SplineSet
68.5 13.400390625 m 0
 65.900390625 13.2998046875 58 13.5 51.5 19.099609375 c 0
 43.5 26 40.7998046875 38.2998046875 45 49.900390625 c 0
 48.400390625 74.7001953125 51.2001953125 101 53.099609375 128.5 c 0
 56.900390625 183 56.599609375 233.599609375 53.900390625 279.200195312 c 0
 53.599609375 280.400390625 52.400390625 285.799804688 55.5 291.299804688 c 0
 59.2001953125 297.799804688 65.900390625 299.200195312 66.7998046875 299.400390625 c 0
 71.2998046875 298.900390625 98.400390625 296.299804688 117.799804688 315.599609375 c 0
 128.799804688 326.599609375 143 350.099609375 132.400390625 364.200195312 c 0
 124.5 374.599609375 105 377.299804688 86.2001953125 368.200195312 c 1
 81.5 372.5 76 378.299804688 70.7998046875 386 c 0
 67.2998046875 391.200195312 64.7001953125 396.200195312 62.7001953125 400.599609375 c 0
 60.2998046875 411.900390625 57.400390625 429.299804688 57 450.799804688 c 0
 56.599609375 471.799804688 58.900390625 482.299804688 59.400390625 497.799804688 c 0
 60 514.900390625 58.5 540 48.099609375 571.5 c 1
 71.099609375 578.200195312 108.700195312 593.5 134.799804688 629 c 0
 144.5 642.200195312 154.099609375 655.599609375 151.799804688 671.900390625 c 0
 147.799804688 701 108.700195312 720.200195312 78.099609375 722.900390625 c 0
 55.7998046875 724.900390625 38 718.200195312 28.7001953125 714 c 1
 29.2998046875 716 35.7001953125 740 20.599609375 756.099609375 c 0
 15.5 761.599609375 9.5 764.400390625 5.2001953125 765.799804688 c 0
 4.7998046875 766.200195312 -1.7998046875 773 0.2998046875 782 c 0
 2 789.099609375 8.599609375 794.5 16.5 795 c 0
 50 788.900390625 91 784.099609375 138 784.5 c 0
 191 785 236.599609375 791.900390625 272.599609375 799.900390625 c 0
 274.200195312 800 281.099609375 800.400390625 285.599609375 795.900390625 c 0
 291.099609375 790.200195312 291 778.799804688 283.200195312 770 c 1
 278.700195312 752.099609375 274.400390625 733.700195312 270.200195312 714.900390625 c 0
 268.200195312 705.900390625 266.299804688 697 264.5 688.200195312 c 0
 262.799804688 569.700195312 261 451.099609375 259.299804688 332.599609375 c 0
 260 301.200195312 259.799804688 267.599609375 258 232.200195312 c 0
 256 190.799804688 252.200195312 152.099609375 247.5 116.400390625 c 0
 246.799804688 112.900390625 245.599609375 104.099609375 249.900390625 94.5 c 0
 252.599609375 88.5 256.299804688 84.599609375 258.799804688 82.400390625 c 0
 285.799804688 78.2998046875 314.5 74.900390625 344.700195312 72.7001953125 c 0
 421.700195312 67 491.599609375 69.900390625 552.099609375 76.7001953125 c 0
 555.900390625 78.099609375 563.700195312 81.7001953125 569.900390625 89.7001953125 c 0
 580.200195312 103 578.400390625 118.200195312 578 121.299804688 c 0
 588.299804688 309.200195312 598.5 497.099609375 608.799804688 685 c 0
 608.099609375 693.299804688 606.599609375 703.599609375 603.099609375 715 c 0
 599.200195312 728.099609375 593.900390625 738.700195312 589.299804688 746.599609375 c 1
 575.799804688 754.799804688 571.599609375 767.700195312 575.5 774.099609375 c 0
 578.599609375 779.099609375 586.299804688 779.700195312 588.5 779.799804688 c 0
 608 780.599609375 638.400390625 781.200195312 676 779 c 0
 711.799804688 776.900390625 724.099609375 774 746.5 774.099609375 c 0
 770.700195312 774.299804688 806.200195312 778.099609375 850.200195312 796 c 0
 851.099609375 795.5 851.900390625 795 852.599609375 794.400390625 c 0
 862.099609375 786.200195312 855.900390625 765.700195312 855 762.799804688 c 0
 854.5 749.599609375 853.900390625 736.299804688 853.400390625 723.099609375 c 1
 833.200195312 727.5 794 732.599609375 757 712.599609375 c 0
 746.700195312 707.099609375 712.799804688 688.700195312 714.900390625 664.799804688 c 0
 715.799804688 654.5 723.099609375 646.700195312 728.700195312 642.099609375 c 1
 734.400390625 643.700195312 749.599609375 647.099609375 767.599609375 641.299804688 c 0
 785.299804688 635.5 795.5 624.099609375 799.200195312 619.400390625 c 0
 801.700195312 610.5 805.5 599.900390625 811.299804688 588.599609375 c 0
 815 581.5 818.900390625 575.299804688 822.599609375 570 c 0
 822.700195312 559.099609375 822.5 542.400390625 821 522.200195312 c 0
 816.900390625 468.099609375 807.5 444.099609375 804 408.799804688 c 0
 801.599609375 384.599609375 801.400390625 349.400390625 812.900390625 305.099609375 c 1
 809.099609375 253.299804688 805.299804688 201.400390625 801.599609375 149.599609375 c 0
 799.099609375 132.400390625 805.700195312 115.900390625 818.599609375 107.5 c 0
 828.700195312 100.900390625 839.5 101.400390625 843.700195312 101.799804688 c 0
 873.099609375 107.099609375 900.099609375 111.599609375 924.700195312 115.599609375 c 0
 929.799804688 116.400390625 937.5 117.400390625 941.700195312 113.200195312 c 0
 948.299804688 106.599609375 945.5 88.7998046875 930.400390625 71.099609375 c 1
 923.5 54.7001953125 914.599609375 32.099609375 905.200195312 5 c 0
 875.099609375 -82.2998046875 861.599609375 -156.599609375 855.099609375 -203.5 c 0
 849.599609375 -242.700195312 844.900390625 -292.099609375 844.599609375 -349.299804688 c 0
 844.400390625 -358.200195312 838.200195312 -363.599609375 834.099609375 -363.099609375 c 0
 830.299804688 -362.599609375 826.200195312 -356.900390625 826.799804688 -349.299804688 c 0
 825.900390625 -342 824.700195312 -330 825.200195312 -315.299804688 c 0
 825.700195312 -298.799804688 828.099609375 -286.700195312 828.400390625 -284.5 c 0
 833.099609375 -257.5 828.700195312 -89.2998046875 711.799804688 -18 c 0
 696.599609375 -8.7001953125 670.200195312 4.599609375 631.599609375 10.2998046875 c 0
 605.299804688 12 565.400390625 14 516.599609375 14.2998046875 c 0
 460.200195312 14.7998046875 447.099609375 12.599609375 400.799804688 12.7001953125 c 0
 315.099609375 12.7998046875 298.5 20.2001953125 226.700195312 21.599609375 c 0
 189 22.2998046875 134.799804688 21.400390625 68.5 13.400390625 c 0
EndSplineSet
Validated: 33
EndChar

StartChar: uni0427
Encoding: 199 1063 26
Width: 775
VWidth: 0
Flags: HW
LayerCount: 2
Fore
SplineSet
12.599609375 766.700195312 m 0
 61.7998046875 766.599609375 102.599609375 769.799804688 133.200195312 773.299804688 c 0
 165.700195312 777 190.400390625 781.400390625 199.400390625 783.099609375 c 0
 221.799804688 787.299804688 241.400390625 791.799804688 257.599609375 795.900390625 c 0
 259.599609375 795.599609375 263.599609375 794.599609375 267.5 791.700195312 c 0
 271.799804688 788.5 273.900390625 784.599609375 274.700195312 782.700195312 c 0
 267.099609375 737.799804688 261.799804688 683.599609375 263.900390625 622.200195312 c 0
 265.099609375 587.599609375 268.5 555.700195312 272.900390625 527 c 0
 276.099609375 526.400390625 279.299804688 525.799804688 282.5 525.200195312 c 0
 282.599609375 522.099609375 282.700195312 519 282.799804688 515.900390625 c 0
 283.200195312 506.599609375 285.200195312 492.700195312 293.099609375 478.799804688 c 0
 297 471.900390625 307.200195312 456.700195312 353.900390625 435.599609375 c 0
 394.099609375 417.400390625 416.299804688 407.400390625 448.299804688 408.900390625 c 0
 476.299804688 410.200195312 498.099609375 419.700195312 510.700195312 426.5 c 1
 513.599609375 434.5 517.299804688 446.799804688 518.700195312 462.200195312 c 0
 520.400390625 480.900390625 517 485 516.599609375 506.5 c 0
 515.900390625 539.200195312 523.5 542.200195312 521.400390625 571.599609375 c 0
 520.400390625 585.700195312 518.400390625 588.200195312 516.799804688 595.299804688 c 0
 515.400390625 601.299804688 515.200195312 606 515 609.5 c 0
 514.200195312 625.299804688 516.900390625 659.599609375 517.099609375 676.200195312 c 0
 517.200195312 686.299804688 516.599609375 701.099609375 512.700195312 719.400390625 c 0
 512.799804688 727.400390625 512.799804688 735.400390625 512.900390625 743.400390625 c 1
 504.799804688 749.5 500.599609375 759.200195312 502.200195312 768.5 c 0
 503.700195312 777.400390625 510 782.599609375 511.799804688 784 c 0
 549.400390625 782.700195312 591.099609375 783.200195312 636.099609375 786.700195312 c 0
 674.799804688 789.700195312 710.700195312 794.400390625 743.299804688 800 c 0
 744.900390625 800 750.099609375 799.900390625 753.400390625 796.299804688 c 0
 757.900390625 791.400390625 757.400390625 781.799804688 750.700195312 774.400390625 c 1
 729.099609375 769.900390625 711.200195312 768.400390625 698.400390625 768 c 0
 670.5 767 658.700195312 770.5 645.099609375 761.599609375 c 0
 629.400390625 751.299804688 625 733.5 624.299804688 730.099609375 c 0
 623 724.200195312 619.5 708.400390625 628.599609375 696.5 c 0
 638.099609375 684.099609375 655.099609375 683.900390625 665.900390625 683.700195312 c 0
 687.799804688 683.400390625 704.599609375 692.700195312 713.400390625 698.599609375 c 0
 721.5 703 730.599609375 700.700195312 734.200195312 694.900390625 c 0
 737.700195312 689.200195312 734.5 682.200195312 734.200195312 681.599609375 c 0
 730.299804688 636.5 727.900390625 588 727.799804688 536.5 c 0
 727.700195312 505.299804688 728.5 475.200195312 730 446.299804688 c 0
 729.099609375 428.700195312 728.400390625 410.900390625 727.799804688 393 c 0
 725.299804688 320.799804688 724.900390625 250.5 726.200195312 182.299804688 c 0
 724.900390625 170.099609375 723.299804688 152.5 722.5 131.099609375 c 0
 720.599609375 85.2998046875 724.200195312 74.099609375 726.200195312 68.7001953125 c 0
 729.799804688 59.099609375 738.700195312 41.599609375 762.5 25.5 c 0
 767.799804688 20.7001953125 768.400390625 13.099609375 764.599609375 8.400390625 c 0
 761.799804688 4.900390625 756.700195312 3.400390625 751.799804688 4.7001953125 c 0
 669.099609375 5.900390625 586.400390625 7.2001953125 503.799804688 8.400390625 c 1
 505.200195312 30.599609375 506.599609375 52.7998046875 508 75 c 0
 509.299804688 80 511 87.400390625 512.900390625 96.400390625 c 0
 524.599609375 153.900390625 521 194.400390625 520.400390625 244.200195312 c 0
 520 270.599609375 520.400390625 307.700195312 523.599609375 353 c 0
 527.599609375 366.5 522.299804688 380.700195312 511.299804688 387.099609375 c 0
 498.099609375 394.900390625 483.799804688 387.5 483 387.099609375 c 0
 472.299804688 382.299804688 455.799804688 375.599609375 435 370 c 0
 404.099609375 361.700195312 389.099609375 362.599609375 360.900390625 355.599609375 c 0
 346.099609375 351.900390625 325.099609375 345.400390625 300.599609375 333.200195312 c 1
 286.5 330.700195312 198.299804688 316.400390625 132 373.200195312 c 0
 84 414.400390625 69.5 474.299804688 63.7998046875 497.900390625 c 0
 58.400390625 520.099609375 56.7998046875 539.400390625 56.2998046875 553.400390625 c 1
 61.099609375 556.799804688 67.5 562.099609375 73.400390625 569.900390625 c 0
 78 576 81 581.799804688 83 586.400390625 c 1
 94.400390625 588.799804688 109.200195312 593.299804688 124.599609375 602.400390625 c 0
 130.5 605.900390625 135.599609375 609.5 140.099609375 613.099609375 c 1
 139.400390625 623.200195312 138.700195312 633.400390625 138 643.5 c 1
 130.799804688 645.599609375 122.400390625 648.599609375 113.5 653.099609375 c 0
 99.900390625 659.900390625 89.5 667.799804688 82 674.400390625 c 0
 80 678.799804688 77.099609375 684.200195312 72.900390625 689.900390625 c 0
 67.900390625 696.599609375 62.7001953125 701.400390625 58.5 704.799804688 c 1
 66.5 714.200195312 67 724.400390625 62.7998046875 728.299804688 c 0
 59.7998046875 731.099609375 54.599609375 730.200195312 53.2001953125 729.900390625 c 0
 49.900390625 733.200195312 43.7998046875 738.599609375 34.5 742.200195312 c 0
 23.400390625 746.5 13.599609375 745.900390625 8.7998046875 745.299804688 c 0
 7.7998046875 745.599609375 4.7001953125 746.599609375 2.400390625 749.700195312 c 0
 1.900390625 750.299804688 -0.2001953125 753.400390625 0.099609375 756.700195312 c 0
 0.400390625 761.400390625 5.5 765.900390625 12.599609375 766.700195312 c 0
EndSplineSet
Validated: 33
EndChar

StartChar: uni0428
Encoding: 200 1064 27
Width: 1054
VWidth: 0
Flags: HW
LayerCount: 2
Fore
SplineSet
27.7001953125 673.900390625 m 1
 23.099609375 696.5 18.599609375 719.099609375 14 741.700195312 c 1
 2.7998046875 745.200195312 -2.7998046875 757.799804688 1.599609375 767.900390625 c 0
 5.7001953125 777.599609375 17.599609375 782.400390625 27.900390625 777.900390625 c 0
 69.099609375 768.5 101.099609375 770.200195312 123 773.700195312 c 0
 148.200195312 777.700195312 167.400390625 785.200195312 211.200195312 791.599609375 c 0
 229 794.200195312 243.900390625 795.5 253.700195312 796.299804688 c 0
 256.099609375 797.099609375 260.400390625 797.900390625 263.700195312 795.799804688 c 0
 269 792.400390625 270.599609375 782 264.700195312 771.599609375 c 0
 264.400390625 766.099609375 264.200195312 760.700195312 263.900390625 755.200195312 c 0
 258.799804688 728 254.400390625 699.099609375 251.099609375 668.599609375 c 0
 242.700195312 590.599609375 243.900390625 519.900390625 249.299804688 459 c 0
 248 431.799804688 246.599609375 404.700195312 245.299804688 377.599609375 c 0
 242.200195312 372.900390625 232.700195312 357.700195312 234.299804688 336.599609375 c 0
 235.599609375 319.599609375 243.299804688 307.799804688 246.900390625 303 c 0
 245 229.099609375 243 155.200195312 241.099609375 81.2998046875 c 0
 240.799804688 80.099609375 238 69.2001953125 245.299804688 59.7998046875 c 0
 250.700195312 52.900390625 259.599609375 49.5 268.400390625 50.900390625 c 0
 298.400390625 49.7001953125 331.5 49.7998046875 367.099609375 52 c 0
 406.400390625 54.400390625 442.200195312 59 474.299804688 64.599609375 c 0
 481.400390625 66.7001953125 491.099609375 70.7998046875 497.900390625 79.7998046875 c 0
 506.200195312 90.7998046875 504.299804688 101.400390625 508.400390625 123.400390625 c 0
 512.400390625 144.799804688 516.400390625 147.099609375 519.400390625 161.700195312 c 0
 522.5 177.099609375 523.200195312 199.799804688 511 230.5 c 1
 500.5 241.5 490 252.599609375 479.5 263.599609375 c 1
 471.400390625 279.700195312 463.5 297.599609375 456.400390625 317.200195312 c 0
 436 373.400390625 429.099609375 425 427.5 465.799804688 c 1
 418.200195312 471.700195312 413.599609375 482.700195312 415.900390625 493.099609375 c 0
 418 502.200195312 425.099609375 509.400390625 434.299804688 512 c 1
 437.5 521 441 530.299804688 444.799804688 539.799804688 c 0
 446.599609375 544.299804688 448.400390625 548.599609375 450.200195312 552.900390625 c 1
 454.799804688 553.200195312 458.400390625 554.400390625 461.099609375 555.599609375 c 0
 480 564.299804688 482.900390625 589.599609375 483.200195312 592.400390625 c 0
 497.799804688 612 513.5 636.599609375 527.299804688 666.5 c 0
 534.400390625 682 540.099609375 696.799804688 544.599609375 710.599609375 c 0
 544.099609375 720.5 546.599609375 728.599609375 550.400390625 729.5 c 0
 554.5 730.5 561.799804688 723.400390625 565.599609375 710.599609375 c 1
 563.400390625 693.200195312 562 674.599609375 561.900390625 654.900390625 c 0
 561.200195312 565.400390625 585.799804688 491.299804688 609.700195312 439.5 c 1
 612 413.900390625 612.799804688 384.900390625 610.799804688 353.400390625 c 0
 609.900390625 339.299804688 608.5 325.799804688 606.799804688 313 c 0
 599.099609375 296.400390625 591.599609375 278.900390625 584.5 260.400390625 c 0
 564.599609375 208.599609375 551.799804688 159.700195312 543.5 116 c 1
 527.799804688 102.900390625 522.200195312 84.5 528.299804688 71.900390625 c 0
 529.5 69.2998046875 532.799804688 63.900390625 540.900390625 59.7998046875 c 0
 566.599609375 57.7001953125 595.299804688 56.900390625 626.5 58.2001953125 c 0
 672.799804688 60.2001953125 713.799804688 66.5 748.400390625 74 c 0
 750.700195312 73.7998046875 766.299804688 72.900390625 778.299804688 85 c 0
 792.5 99.2998046875 788.599609375 118.799804688 788.299804688 120.200195312 c 0
 788.400390625 205.299804688 788.599609375 290.400390625 788.700195312 375.5 c 1
 798.599609375 452.099609375 803.400390625 540.299804688 796.700195312 637.599609375 c 0
 794.5 669.400390625 791.200195312 699.900390625 787.200195312 729 c 0
 786.599609375 729.700195312 775.200195312 743.099609375 780.400390625 758.400390625 c 0
 783.099609375 766.400390625 788.900390625 770.900390625 791.400390625 772.599609375 c 0
 832.400390625 773.299804688 876.900390625 775.799804688 924.299804688 781 c 0
 963.400390625 785.299804688 1000 790.900390625 1034.09960938 797.299804688 c 0
 1038.70019531 801.400390625 1045.79980469 800.700195312 1049.29980469 796.200195312 c 0
 1052.5 792.099609375 1051.90039062 785.700195312 1047.70019531 782 c 0
 1038.70019531 731.5 1031.20019531 674.799804688 1027.20019531 612.900390625 c 0
 1023.5 555.799804688 1023.29980469 502.900390625 1025.09960938 454.900390625 c 0
 1023.79980469 437.099609375 1022.59960938 419.400390625 1021.40039062 401.700195312 c 1
 1015.09960938 391.200195312 1008.79980469 380.700195312 1002.5 370.200195312 c 1
 985.700195312 359.299804688 968.900390625 348.5 952.099609375 337.599609375 c 0
 946.299804688 337.200195312 936.5 335.599609375 926.900390625 329.200195312 c 0
 915.299804688 321.5 898.799804688 303.400390625 904.799804688 285.599609375 c 0
 910.099609375 269.900390625 931.400390625 258.900390625 954.200195312 265.099609375 c 1
 968.099609375 248.900390625 988.400390625 221.299804688 1002 182.099609375 c 0
 1017.5 137.299804688 1017 98.2998046875 1015 76.099609375 c 0
 1017.09960938 66.2001953125 1020 55.099609375 1024.09960938 43.400390625 c 0
 1026.79980469 35.7998046875 1029.59960938 28.7998046875 1032.5 22.400390625 c 0
 1033.09960938 21.099609375 1036.59960938 13.2001953125 1033 7.2001953125 c 0
 1028.79980469 0.099609375 1015.79980469 -2.7998046875 1003.59960938 4.599609375 c 0
 1001.09960938 5.900390625 997.299804688 7.400390625 992.599609375 7.7998046875 c 0
 980.900390625 8.7001953125 972.400390625 2.2998046875 970 0.400390625 c 0
 966 -0.5 960.799804688 -1.2001953125 954.799804688 -1.2001953125 c 0
 949.200195312 -1.099609375 944.400390625 -0.400390625 940.599609375 0.400390625 c 0
 940.299804688 2.400390625 939.400390625 6.7998046875 935.900390625 10.900390625 c 0
 933.5 13.7998046875 930.799804688 15.400390625 929.099609375 16.2001953125 c 0
 917 19 900.599609375 21.5 881.299804688 20.900390625 c 0
 866 20.400390625 852.799804688 18 842.400390625 15.400390625 c 0
 828.400390625 14.7998046875 814.400390625 14.2001953125 800.400390625 13.599609375 c 0
 691.200195312 9.099609375 583.099609375 6.2001953125 476.299804688 4.7998046875 c 0
 457.400390625 6.900390625 428.5 9.7998046875 393.299804688 11.5 c 0
 319.900390625 15.099609375 271.099609375 11.2001953125 212.599609375 8.900390625 c 0
 169.200195312 7.099609375 106.400390625 5.7001953125 28.7998046875 7.7998046875 c 1
 22.099609375 13.099609375 15.5 18.2998046875 8.7998046875 23.599609375 c 1
 24.2001953125 122.299804688 34.900390625 233.299804688 36.2001953125 354.400390625 c 0
 36.7001953125 407.599609375 35.400390625 458.599609375 32.599609375 507.099609375 c 0
 35.2001953125 513.099609375 38.900390625 523.900390625 38.599609375 537.799804688 c 0
 38.099609375 555.299804688 31.400390625 568.200195312 27.7998046875 574 c 1
 30.599609375 579.299804688 33.400390625 584.5 36.2001953125 589.799804688 c 1
 49.599609375 587.700195312 79.2001953125 585 109.099609375 600.799804688 c 0
 118.5 605.799804688 126 611.599609375 131.900390625 617 c 1
 125.299804688 629.099609375 123.299804688 639 122.799804688 645.799804688 c 0
 122.400390625 650.599609375 122.599609375 655.099609375 120 660.400390625 c 0
 116.700195312 667 111 670.799804688 106.599609375 673 c 0
 100.099609375 675.799804688 91.900390625 678.599609375 82.2001953125 680.099609375 c 0
 58.099609375 683.900390625 38.2998046875 678 27.7001953125 673.900390625 c 1
EndSplineSet
Validated: 33
EndChar

StartChar: uni0402
Encoding: 162 1026 28
Width: 1048
VWidth: 0
Flags: HW
LayerCount: 2
Fore
SplineSet
1037.79980469 189.400390625 m 0
 1047.70019531 129.299804688 1021.70019531 79.7001953125 1008.40039062 54.599609375 c 0
 945.799804688 -64.400390625 752.5 -163.799804688 648.700195312 -209.799804688 c 1
 770 -146.099609375 836.400390625 -29.2001953125 819.799804688 73.5 c 0
 809.299804688 139.400390625 763.900390625 203.700195312 700.5 241.599609375 c 0
 615.299804688 292.299804688 530.299804688 275.200195312 511.700195312 271 c 1
 518.900390625 28.7001953125 l 1
 548.299804688 -35.2998046875 l 1
 245.400390625 -35.2998046875 l 1
 259.599609375 -24 282 -8.5 313 2.599609375 c 0
 343.700195312 13.900390625 371.099609375 16.099609375 389.099609375 16.400390625 c 1
 406.799804688 44.2998046875 401 58.2001953125 399.299804688 61.5 c 0
 388.799804688 83.400390625 340.900390625 90 280 68.400390625 c 1
 313 114.900390625 l 1
 316.299804688 248.299804688 319.900390625 381.5 323.200195312 514.700195312 c 1
 329.799804688 515.299804688 386 520.299804688 408.200195312 563.200195312 c 0
 411 569 423.200195312 592.599609375 413.200195312 610 c 0
 402.099609375 629.900390625 364.700195312 637.400390625 323.200195312 620.5 c 1
 321.5 662.599609375 319.799804688 704.700195312 317.900390625 746.799804688 c 1
 308.5 752.599609375 291.599609375 761.200195312 269.700195312 762.299804688 c 0
 269.400390625 762.299804688 234.799804688 764 195.200195312 736.299804688 c 0
 148.099609375 703.599609375 87.2001953125 595.299804688 39.2998046875 442.200195312 c 1
 3 799.099609375 l 1
 109.599609375 799.700195312 216.5 800 323.099609375 800.5 c 1
 321.400390625 835.700195312 319.700195312 870.799804688 317.799804688 906 c 0
 316.700195312 916.799804688 314.200195312 929.799804688 309.200195312 943.900390625 c 0
 301.400390625 966.900390625 290.400390625 984.099609375 281.5 996 c 1
 546.5 996 l 1
 539.900390625 976 533.799804688 953.299804688 529.099609375 928.400390625 c 0
 520 879.099609375 519.700195312 835.099609375 522.200195312 800.5 c 1
 671.700195312 800 821 799.700195312 970.5 799.099609375 c 1
 945 707.700195312 919.5 616.599609375 894.299804688 525.299804688 c 1
 889.400390625 545.5 855.900390625 672 731.5 734.599609375 c 0
 655.700195312 772.900390625 583.900390625 767.900390625 553.200195312 764 c 1
 520.5 727.799804688 l 1
 517.400390625 589.299804688 514.599609375 450.900390625 511.599609375 312.400390625 c 1
 536.799804688 314 583.599609375 320.700195312 632.900390625 350.299804688 c 0
 698.5 390.200195312 728.200195312 446.900390625 738.400390625 469.900390625 c 1
 814 435 907.900390625 379.299804688 982.400390625 293.200195312 c 0
 1012.90039062 258.299804688 1031.70019531 227.900390625 1037.79980469 189.400390625 c 0
799.099609375 283 m 0
 812.099609375 292.400390625 816.5 306.5 818.099609375 312.299804688 c 0
 810.099609375 338.299804688 787.700195312 355.799804688 764.400390625 355.5 c 0
 740.099609375 355.299804688 713.200195312 336.200195312 714.299804688 314 c 0
 714.900390625 299.599609375 727.299804688 289.599609375 731.5 286.299804688 c 0
 753.700195312 271.099609375 781.099609375 269.700195312 799.099609375 283 c 0
EndSplineSet
Validated: 33
EndChar

StartChar: uni040F
Encoding: 175 1039 29
Width: 904
VWidth: 0
Flags: HW
LayerCount: 2
Fore
SplineSet
878.5 269.599609375 m 0
 881.799804688 183.400390625 887.799804688 103.599609375 895.400390625 32.099609375 c 1
 901.400390625 27.099609375 902.700195312 18.7998046875 898.900390625 13.2998046875 c 0
 896.099609375 9.599609375 891.099609375 7.5 886.099609375 7.7998046875 c 0
 859.299804688 6.5 830.900390625 5.7001953125 801.599609375 6 c 0
 737.099609375 6.7001953125 677.400390625 12 624 19.5 c 0
 598.099609375 21.2998046875 572.5 22.7998046875 546.700195312 24.2998046875 c 0
 544.200195312 24 535.400390625 23.2998046875 527.900390625 16.5 c 0
 520.900390625 10.2001953125 518.900390625 2.7001953125 518.400390625 -0.099609375 c 0
 516.799804688 -19.7001953125 512.599609375 -46 501.799804688 -75.599609375 c 0
 489.200195312 -109 472.700195312 -134.099609375 459.900390625 -150.900390625 c 0
 457.700195312 -151.900390625 452.700195312 -154.900390625 448.900390625 -160.900390625 c 0
 444.099609375 -168.700195312 444.900390625 -176.700195312 445.400390625 -179 c 0
 427.900390625 -200.900390625 410.599609375 -222.400390625 393 -244 c 0
 390.900390625 -252.799804688 382.400390625 -256.599609375 376.900390625 -254.299804688 c 0
 371.700195312 -252.299804688 368.400390625 -244.299804688 371.900390625 -237 c 0
 381.900390625 -213.700195312 396.5 -172.299804688 396.200195312 -119.099609375 c 0
 396 -59.099609375 377.099609375 -13.5 365.599609375 10.099609375 c 1
 328.700195312 9.099609375 81.599609375 9.7998046875 56.7998046875 7.2998046875 c 0
 49.2001953125 6.5 42.5 10.5 40.7001953125 16.2998046875 c 0
 38.900390625 21.599609375 41.7001953125 26.2998046875 42.2001953125 27.099609375 c 0
 53 125.400390625 63.599609375 223.5 74.2998046875 321.599609375 c 1
 78.7998046875 322.299804688 84.2998046875 324.299804688 89.599609375 328.599609375 c 0
 91.900390625 330.400390625 101.700195312 338.700195312 99.400390625 346.200195312 c 0
 98.400390625 349.5 95.599609375 351.5 93.599609375 352.5 c 0
 89.400390625 352.5 85.599609375 354.299804688 84.099609375 357.299804688 c 0
 81.7998046875 361.799804688 84.2998046875 368.799804688 91.099609375 371.299804688 c 0
 96.599609375 370 103.900390625 369 112.200195312 369 c 0
 121.5 369 129.200195312 370.5 135 372.299804688 c 0
 144.799804688 373 151.299804688 367.5 151.599609375 363.5 c 0
 151.599609375 359.700195312 145.799804688 354.700195312 137.299804688 354.200195312 c 0
 132.299804688 353.900390625 126.799804688 353.400390625 121 352.400390625 c 0
 118.5 352.200195312 116.299804688 351.700195312 114 351.400390625 c 0
 113 349.599609375 111.200195312 346.099609375 110.700195312 341.599609375 c 0
 110.400390625 336.799804688 111.700195312 333.099609375 112.200195312 331.299804688 c 0
 115.700195312 329 135 316.5 160.099609375 322 c 0
 189.700195312 328.299804688 201.900390625 354.299804688 203.200195312 357.099609375 c 0
 205.700195312 362.200195312 225.799804688 403.5 205.5 433.900390625 c 0
 203 437.900390625 199.299804688 442.400390625 194 446.400390625 c 0
 178.200195312 458 164.099609375 462 153.099609375 463 c 0
 133 464.700195312 123.200195312 456.700195312 102.900390625 458.200195312 c 0
 86.099609375 459.5 72.5 466.299804688 62 473.299804688 c 1
 60 518.5 56 566.099609375 50.5 615.799804688 c 0
 46.7998046875 647.400390625 42.5 678 38 707.599609375 c 0
 37.2001953125 713.400390625 35.2001953125 722.700195312 29.2001953125 732.700195312 c 0
 21.900390625 745 12.599609375 752 7.400390625 755.5 c 0
 0.099609375 762.5 -1.900390625 773 1.900390625 781.299804688 c 0
 5.900390625 789.799804688 14.400390625 792.599609375 15.900390625 793.099609375 c 0
 56.5 786.099609375 106.700195312 781.099609375 164 782.700195312 c 0
 211.400390625 784.200195312 253.299804688 789.700195312 288.700195312 796.700195312 c 0
 295.700195312 801.200195312 304.200195312 800.400390625 309 795.900390625 c 0
 315.200195312 789.900390625 315 777.400390625 305.700195312 770.099609375 c 1
 304 762.599609375 302.200195312 755.099609375 300.200195312 747.299804688 c 0
 298.400390625 667.799804688 296.700195312 588.099609375 294.900390625 508.299804688 c 0
 297.599609375 478.5 292.099609375 460.900390625 286.099609375 450.400390625 c 0
 283.400390625 445.400390625 274.299804688 431.099609375 276.099609375 412.799804688 c 0
 276.099609375 410.599609375 276.599609375 408.799804688 276.900390625 407.299804688 c 0
 278.400390625 398.799804688 282.700195312 384.5 295.700195312 367.400390625 c 1
 293.700195312 286.099609375 292 204.900390625 290.200195312 123.599609375 c 1
 273.400390625 96.2001953125 275.700195312 65.400390625 289.700195312 53.099609375 c 0
 307 37.7998046875 349.400390625 43 373.200195312 80.400390625 c 0
 375.200195312 79.7001953125 388.5 75.400390625 401 83.2001953125 c 0
 408.5 87.900390625 412 94.7001953125 413 97.7001953125 c 0
 438.099609375 123.799804688 463.200195312 149.900390625 488.299804688 176 c 1
 486.599609375 192.400390625 491.599609375 204.400390625 498.599609375 206.400390625 c 0
 503.400390625 207.400390625 507.599609375 204.099609375 508.400390625 203.599609375 c 0
 515.700195312 197.799804688 517 184.799804688 511.200195312 171.5 c 1
 517 153.900390625 519 139.400390625 520 129.099609375 c 0
 521.799804688 106.700195312 518.5 93.7001953125 526.799804688 78.900390625 c 0
 531.900390625 69.599609375 539.099609375 63.599609375 544.400390625 60.099609375 c 0
 586.299804688 43.2998046875 629.400390625 59.599609375 643.700195312 89.7001953125 c 0
 657.700195312 119.099609375 639.400390625 150.900390625 637.400390625 154.200195312 c 0
 637.900390625 205.900390625 638.400390625 257.5 638.900390625 309.200195312 c 0
 643 365.700195312 643.700195312 426.099609375 640.200195312 490.099609375 c 0
 639.200195312 504.900390625 638.200195312 519.5 636.900390625 533.5 c 0
 636.200195312 567.799804688 635.200195312 601.900390625 634.400390625 636.299804688 c 0
 637.900390625 644.799804688 644.700195312 664.400390625 638.900390625 687.200195312 c 0
 637.200195312 694.299804688 634.700195312 700.299804688 631.900390625 705.299804688 c 0
 625.099609375 724.099609375 618.400390625 742.900390625 611.599609375 761.700195312 c 0
 611.099609375 762.700195312 609.299804688 765.900390625 610.299804688 770.200195312 c 0
 611.799804688 776.700195312 618.099609375 779.5 618.599609375 779.5 c 0
 654.5 776 696.599609375 774.200195312 743.5 777 c 0
 798.700195312 780.200195312 846.900390625 789.299804688 886 799.299804688 c 0
 886.299804688 799.299804688 893 801.599609375 897.799804688 797.299804688 c 0
 902.099609375 793.5 902.599609375 785.5 897.799804688 779.5 c 1
 886 674.400390625 880.299804688 580.900390625 878 501.599609375 c 0
 875.700195312 435.700195312 875.200195312 357.400390625 878.5 269.599609375 c 0
759.900390625 92.5 m 0
 764.400390625 94.2998046875 766.900390625 99.2998046875 765.599609375 103.599609375 c 0
 764.099609375 108.400390625 758.099609375 111.200195312 753.099609375 108.900390625 c 0
 742.900390625 112.900390625 731.799804688 110.599609375 725.299804688 103.599609375 c 0
 720.799804688 98.599609375 718 90.2998046875 720.799804688 83 c 0
 724.799804688 71.400390625 741.900390625 65.400390625 751.900390625 72.7001953125 c 0
 760.900390625 79 759.900390625 91.7001953125 759.900390625 92.5 c 0
795.299804688 262.400390625 m 1
 814.799804688 274.700195312 818.599609375 297.200195312 810.400390625 308.400390625 c 0
 804.700195312 315.900390625 793.400390625 318.700195312 782.099609375 316.900390625 c 1
 774.299804688 323.200195312 762.299804688 331.200195312 746.200195312 337.200195312 c 0
 725.799804688 344.700195312 708 345.799804688 697 345.5 c 0
 687.400390625 345.200195312 679.400390625 338.700195312 676.900390625 329.900390625 c 0
 674.900390625 321.299804688 678.099609375 312.299804688 685.400390625 307.299804688 c 1
 686.099609375 301.799804688 687.400390625 293.799804688 689.400390625 284.5 c 0
 694.900390625 259.099609375 698.099609375 255.900390625 700.400390625 254.099609375 c 0
 709.099609375 247.599609375 722.400390625 251.099609375 728.700195312 253.599609375 c 1
 733.700195312 249.900390625 738.700195312 246.099609375 743.700195312 242.599609375 c 0
 743.200195312 241.5 736.200195312 224.200195312 746 211.700195312 c 0
 757.299804688 196.900390625 783.599609375 199.400390625 786.599609375 206.400390625 c 0
 788.299804688 210.400390625 781.799804688 213.700195312 780.299804688 222.700195312 c 0
 778.299804688 233 784.299804688 243.299804688 791.299804688 251.299804688 c 0
 794.799804688 251.299804688 797.599609375 253.599609375 798.099609375 256.599609375 c 0
 798.299804688 258.900390625 797.299804688 260.900390625 795.299804688 262.400390625 c 1
EndSplineSet
Validated: 33
EndChar

StartChar: comma
Encoding: 44 44 31
Width: 160
VWidth: 0
Flags: HW
LayerCount: 2
Fore
SplineSet
147 122.5 m 1
 150.599609375 89.5 149.799804688 54.400390625 142.099609375 18.2001953125 c 0
 141.599609375 16 141.099609375 13.7001953125 140.599609375 11.5 c 0
 108.299804688 12.599609375 100.5 11 100.299804688 9.099609375 c 0
 100.099609375 7.400390625 106.200195312 6.099609375 113.200195312 1.2001953125 c 0
 122.599609375 -5.400390625 127.799804688 -14.599609375 130.799804688 -22 c 0
 129.900390625 -24.5 129 -27 128 -29.5 c 0
 113.299804688 -66.599609375 91.5 -97.2998046875 67 -122.5 c 1
 75.900390625 -95.5 87.099609375 -47.7998046875 76 8.5 c 0
 72.099609375 28.2001953125 66.2001953125 45.2998046875 60 59.5 c 1
 41 55.7998046875 22 52.2001953125 3 48.5 c 1
 2 61.2001953125 1 73.7998046875 0 86.5 c 1
 49 98.5 98 110.5 147 122.5 c 1
EndSplineSet
EndChar

StartChar: period
Encoding: 46 46 32
Width: 116
VWidth: 0
Flags: HW
LayerCount: 2
Fore
SplineSet
114.700195312 57.2998046875 m 0
 114.700195312 21.599609375 81.2998046875 0.900390625 57.400390625 0 c 0
 51.2998046875 -0.2001953125 45.900390625 0.900390625 41.599609375 2.2001953125 c 1
 42.099609375 3.599609375 48.400390625 21.900390625 38.400390625 33.2998046875 c 0
 36.599609375 35.400390625 33.5 38.900390625 28.7001953125 39.599609375 c 0
 21.599609375 40.7001953125 17.400390625 34.5 10.400390625 35.900390625 c 0
 6.7998046875 36.599609375 4.2001953125 38.900390625 2.7001953125 40.7998046875 c 0
 1.2998046875 44.7998046875 -0.099609375 50.5 0.099609375 57.2998046875 c 0
 0.7998046875 81.5 21.900390625 114.599609375 57.400390625 114.599609375 c 0
 89 114.700195312 114.700195312 89 114.700195312 57.2998046875 c 0
EndSplineSet
EndChar
